<svg width="19" height="19" viewBox="0 0 19 19" fill="none" xmlns="http://www.w3.org/2000/svg">
<path d="M18.2113 14.7055L17.5651 7.46768C17.3438 5.33705 15.549 3.71777 13.4069 3.71777H5.35758C3.25493 3.73813 1.49192 5.3167 1.24514 7.40917L0.495925 14.6508C0.223713 16.9659 2.03125 18.9998 4.36159 18.9998H14.338C16.6467 18.9998 18.4479 17.0015 18.2101 14.7042L18.2113 14.7055ZM16.442 17.004C15.8988 17.6069 15.1509 17.9389 14.3393 17.9389H4.36286C3.55386 17.9389 2.78429 17.593 2.24622 16.9887C1.70816 16.3845 1.45503 15.5781 1.55043 14.7754L1.55297 14.7602L2.30092 7.5262C2.48409 5.9985 3.75484 4.83715 5.28253 4.78118C5.30161 4.78118 5.32101 4.78055 5.34041 4.77991C5.35981 4.77927 5.37921 4.77864 5.39829 4.77864H13.4209C15.016 4.785 16.3415 5.98197 16.5106 7.56817L17.1556 14.7983V14.806V14.8149C17.2395 15.6226 16.9864 16.3998 16.442 17.0027V17.004Z" fill="#2E2E2E"/>
<path d="M18.2113 14.7055L17.5651 7.46768C17.3438 5.33705 15.549 3.71777 13.4069 3.71777H5.35758C3.25493 3.73813 1.49192 5.3167 1.24514 7.40917L0.495925 14.6508C0.223713 16.9659 2.03125 18.9998 4.36159 18.9998H14.338C16.6467 18.9998 18.4479 17.0015 18.2101 14.7042L18.2113 14.7055ZM16.442 17.004C15.8988 17.6069 15.1509 17.9389 14.3393 17.9389H4.36286C3.55386 17.9389 2.78429 17.593 2.24622 16.9887C1.70816 16.3845 1.45503 15.5781 1.55043 14.7754L1.55297 14.7602L2.30092 7.5262C2.48409 5.9985 3.75484 4.83715 5.28253 4.78118C5.30161 4.78118 5.32101 4.78055 5.34041 4.77991C5.35981 4.77927 5.37921 4.77864 5.39829 4.77864H13.4209C15.016 4.785 16.3415 5.98197 16.5106 7.56817L17.1556 14.7983V14.806V14.8149C17.2395 15.6226 16.9864 16.3998 16.442 17.0027V17.004Z" stroke="#2E2E2E"/>
<path d="M13.3419 3.71811C12.9731 1.59766 11.3258 0 9.34908 0C7.37236 0 5.72637 1.59766 5.35621 3.71811C5.30406 4.0094 5.27734 4.31214 5.27734 4.62124C5.27734 4.67594 5.27734 4.72809 5.27989 4.78152C5.29897 4.78152 5.31837 4.78088 5.33776 4.78025C5.35716 4.77961 5.37656 4.77898 5.39564 4.77898H6.34202C6.33948 4.72682 6.33821 4.6734 6.33821 4.62124C6.33821 4.3096 6.37255 4.00686 6.43615 3.71811C6.77451 2.19042 7.95113 1.06214 9.3478 1.06214C10.7445 1.06214 11.9211 2.19169 12.2595 3.71811C12.3231 4.00686 12.3574 4.3096 12.3574 4.62124V4.62126C12.3574 4.67468 12.3574 4.72683 12.3536 4.77898H13.4157C13.4157 4.7529 13.4164 4.7265 13.417 4.70011C13.4176 4.67372 13.4183 4.64732 13.4183 4.62124C13.4183 4.31214 13.3916 4.0094 13.3394 3.71811H13.3419Z" fill="#2E2E2E"/>
<path d="M13.3419 3.71811C12.9731 1.59766 11.3258 0 9.34908 0C7.37236 0 5.72637 1.59766 5.35621 3.71811C5.30406 4.0094 5.27734 4.31214 5.27734 4.62124C5.27734 4.67594 5.27734 4.72809 5.27989 4.78152C5.29897 4.78152 5.31837 4.78088 5.33776 4.78025C5.35716 4.77961 5.37656 4.77898 5.39564 4.77898H6.34202C6.33948 4.72682 6.33821 4.6734 6.33821 4.62124C6.33821 4.3096 6.37255 4.00686 6.43615 3.71811C6.77451 2.19042 7.95113 1.06214 9.3478 1.06214C10.7445 1.06214 11.9211 2.19169 12.2595 3.71811C12.3231 4.00686 12.3574 4.3096 12.3574 4.62124V4.62126C12.3574 4.67468 12.3574 4.72683 12.3536 4.77898H13.4157C13.4157 4.7529 13.4164 4.7265 13.417 4.70011C13.4176 4.67372 13.4183 4.64732 13.4183 4.62124C13.4183 4.31214 13.3916 4.0094 13.3394 3.71811H13.3419Z" stroke="#2E2E2E"/>
<path d="M12.666 6.49414C13.0222 6.49414 13.2829 6.84013 13.1735 7.17849C12.6037 8.94914 11.1052 10.2123 9.34983 10.2123C7.59445 10.2123 6.09855 8.94914 5.52742 7.17849C5.41802 6.84013 5.67879 6.49414 6.03368 6.49414C6.26137 6.49414 6.46617 6.64042 6.53613 6.85667C6.96734 8.1961 8.06637 9.15012 9.34983 9.15012C10.6333 9.15012 11.7311 8.1961 12.1635 6.85667C12.2335 6.63915 12.4383 6.49414 12.666 6.49414Z" fill="#2E2E2E"/>
<path d="M12.666 6.49414C13.0222 6.49414 13.2829 6.84013 13.1735 7.17849C12.6037 8.94914 11.1052 10.2123 9.34983 10.2123C7.59445 10.2123 6.09855 8.94914 5.52742 7.17849C5.41802 6.84013 5.67879 6.49414 6.03368 6.49414C6.26137 6.49414 6.46617 6.64042 6.53613 6.85667C6.96734 8.1961 8.06637 9.15012 9.34983 9.15012C10.6333 9.15012 11.7311 8.1961 12.1635 6.85667C12.2335 6.63915 12.4383 6.49414 12.666 6.49414Z" stroke="#2E2E2E"/>
</svg>
