<svg width="48" height="40" viewBox="0 0 48 40" fill="none" xmlns="http://www.w3.org/2000/svg">
<path d="M44.889 0H2.71703C1.21737 0 0 1.21988 0 2.71703V29.5298C0 31.0295 1.21988 32.2468 2.71703 32.2468L25.5294 32.2494L24.564 38.8456C24.5111 39.2161 24.6648 39.5866 24.9673 39.8059C25.2723 40.0277 25.6705 40.0605 26.0057 39.8967L32.0851 36.9074L38.1695 39.8967C38.3106 39.9647 38.4618 40 38.6156 40C38.8248 40 39.034 39.9345 39.2104 39.8059C39.5129 39.5841 39.6691 39.2161 39.6137 38.8456L38.6484 32.2494H44.8915C46.3912 32.2494 47.6086 31.0295 47.6086 29.5323L47.606 2.71955C47.606 1.21989 46.3887 0 44.889 0ZM32.0901 29.9428C29.048 29.9428 26.5728 27.4678 26.5728 24.4255C26.5728 21.3833 29.0479 18.9083 32.0901 18.9083C35.1323 18.9083 37.6074 21.3833 37.6074 24.4255C37.6074 27.4652 35.1323 29.9428 32.0901 29.9428ZM32.5337 34.8779C32.2514 34.7392 31.9263 34.7392 31.644 34.8779L26.8375 37.2421L27.8054 30.6155C29.0227 31.4599 30.4972 31.9589 32.0876 31.9589C33.678 31.9589 35.1525 31.4598 36.3698 30.6155L37.3377 37.2395L32.5337 34.8779ZM45.5894 29.5319C45.5894 29.9201 45.2744 30.2326 44.8888 30.2326H38.3506L38.1515 28.8741C39.0714 27.6264 39.6209 26.089 39.6209 24.423C39.6209 20.2693 36.2409 16.8892 32.0871 16.8892C27.9333 16.8892 24.5533 20.2691 24.5533 24.423C24.5533 26.089 25.1028 27.6239 26.0227 28.8741L25.8236 30.2326H2.71639C2.32825 30.2326 2.01573 29.9176 2.01573 29.5319V2.71916C2.01573 2.33101 2.33079 2.01849 2.71639 2.01849H44.8884C45.2765 2.01849 45.5891 2.33355 45.5891 2.71916L45.5894 29.5319Z" fill="black"/>
<path fill-rule="evenodd" clip-rule="evenodd" d="M22.9056 9.19415H7.41992V7.58105H22.9056V9.19415Z" fill="black"/>
<path fill-rule="evenodd" clip-rule="evenodd" d="M34.1976 13.7107H7.09766V12.0977H34.1976V13.7107Z" fill="black"/>
</svg>
