<svg width="31" height="34" viewBox="0 0 31 34" fill="none" xmlns="http://www.w3.org/2000/svg">
<path d="M30.4344 33.2261H30.4174L11.952 32.6762C11.8103 32.6762 11.6742 32.6138 11.5722 32.5174L0.170955 21.4054C0.0462281 21.2807 -0.0161337 21.1049 0.00654398 20.9292L2.45573 0.502249C2.47274 0.343505 2.55778 0.207439 2.6825 0.111069C2.80723 0.0203581 2.97165 -0.0193295 3.12474 0.0090193L23.9428 3.97198C24.0789 4.00033 24.2036 4.07403 24.2886 4.18742L30.0034 11.7505C30.0714 11.8412 30.1111 11.9546 30.1168 12.068L30.9956 32.631C31.0012 32.7897 30.9445 32.9428 30.8311 33.0562C30.7234 33.1639 30.5817 33.2263 30.4286 33.2263L30.4344 33.2261ZM12.2074 31.548L29.8394 32.0752L28.9946 12.3003L23.5179 5.05472L3.51044 1.24488L1.16328 20.7872L12.2074 31.548Z" fill="black"/>
<path d="M11.9763 32.6768H11.9083C11.5964 32.6371 11.3753 32.3536 11.415 32.0418L12.4128 23.9911L5.59829 12.4313L1.07401 21.2585C0.932279 21.5363 0.592122 21.6497 0.308634 21.5023C0.0308345 21.3606 -0.0825464 21.0204 0.0648473 20.7369L5.05973 10.9914C5.15611 10.8099 5.3432 10.6909 5.54732 10.6852C5.75142 10.6682 5.94986 10.7873 6.05189 10.963L13.4843 23.5776C13.5467 23.6853 13.5751 23.81 13.558 23.9347L12.5376 32.1782C12.5035 32.4673 12.2598 32.6768 11.9763 32.6768Z" fill="black"/>
<path d="M5.559 11.8191C5.4853 11.8191 5.4116 11.8077 5.34356 11.7794C5.17348 11.7113 5.04875 11.5639 5.00907 11.3882L2.46917 0.701414C2.39547 0.395266 2.58256 0.0891183 2.88869 0.0210854C3.19482 -0.0469474 3.50098 0.134474 3.56902 0.440603L5.92749 10.3505L13.6096 5.52039C13.6776 5.4807 13.7513 5.45236 13.8307 5.44102L23.7577 3.97264C24.0752 3.92728 24.3586 4.14272 24.404 4.44887C24.4493 4.76068 24.2339 5.04414 23.9278 5.09516L14.1198 6.54653L5.87092 11.7341C5.78021 11.7908 5.67249 11.8191 5.57044 11.8191L5.559 11.8191Z" fill="black"/>
<path d="M24.603 18.9112C24.4386 18.9112 24.2798 18.8375 24.1721 18.7127L13.559 6.45557L2.77021 1.08115C2.49241 0.939419 2.37334 0.599262 2.51509 0.321434C2.65685 0.0436055 2.99698 -0.0697462 3.27481 0.0663123L14.1659 5.4977C14.2339 5.53171 14.2906 5.57707 14.3416 5.63376L24.5807 17.4602L29.1104 11.7513C29.3031 11.5075 29.6603 11.4678 29.9041 11.6606C30.1479 11.8533 30.1932 12.2105 29.9948 12.4599L25.0398 18.7077C24.9378 18.8381 24.7791 18.9175 24.609 18.9232H24.5976L24.603 18.9112Z" fill="black"/>
<path d="M30.4355 33.2254C30.3505 33.2254 30.2598 33.2027 30.1804 33.163L12.7415 24.3699C12.5487 24.2735 12.4297 24.0751 12.4297 23.8597C12.4297 23.6442 12.5601 23.4458 12.7528 23.3551L24.358 17.833C24.4997 17.765 24.6585 17.7593 24.8059 17.816C24.9533 17.8727 25.0667 17.9861 25.1234 18.1335L30.9571 32.4487C31.0478 32.6698 30.9912 32.9193 30.8154 33.078C30.7077 33.1744 30.5716 33.2311 30.4299 33.2311L30.4355 33.2254ZM14.2833 23.8822L29.3412 31.4736L24.301 19.1144L14.2833 23.8822Z" fill="black"/>
</svg>
