<svg width="43" height="33" viewBox="0 0 43 33" fill="none" xmlns="http://www.w3.org/2000/svg">
<path fill-rule="evenodd" clip-rule="evenodd" d="M41.6198 33.0003H0.41045C0.164178 33.0003 0 32.8362 0 32.5899V30.7018C0 29.3884 1.06719 28.3212 2.38063 28.3212H39.6496C40.9631 28.3212 42.0303 29.3884 42.0303 30.7018V32.5899C42.0303 32.8362 41.8661 33.0003 41.6198 33.0003ZM0.821085 32.1794H41.2096V30.7018C41.2096 29.8809 40.4708 29.1421 39.6499 29.1421H2.38087C1.55998 29.1421 0.821169 29.8809 0.821169 30.7018L0.821085 32.1794Z" fill="black"/>
<path fill-rule="evenodd" clip-rule="evenodd" d="M14.9415 29.1421C14.6952 29.1421 14.531 28.9779 14.531 28.7317V24.6272C14.531 24.3809 14.3668 24.1346 14.1206 24.1346H7.71768C7.5535 24.1346 7.30723 24.3809 7.30723 24.6272V28.7317C7.30723 28.9779 7.14305 29.1421 6.89678 29.1421C6.65051 29.1421 6.48633 28.9779 6.48633 28.7317V24.6272C6.48633 23.8884 7.06096 23.3137 7.71769 23.3137H14.1206C14.8594 23.3137 15.3519 23.8884 15.3519 24.6272V28.7317C15.3519 28.9779 15.1877 29.1421 14.9415 29.1421Z" fill="black"/>
<path fill-rule="evenodd" clip-rule="evenodd" d="M12.7236 26.023H9.11162C8.86535 26.023 8.70117 25.8589 8.70117 25.6126C8.70117 25.3663 8.86535 25.2021 9.11162 25.2021H12.7236C12.9699 25.2021 13.1341 25.3663 13.1341 25.6126C13.1341 25.8589 12.9699 26.023 12.7236 26.023Z" fill="black"/>
<path fill-rule="evenodd" clip-rule="evenodd" d="M12.7236 27.3365H9.11162C8.86535 27.3365 8.70117 27.1723 8.70117 26.9261C8.70117 26.6798 8.86535 26.5156 9.11162 26.5156H12.7236C12.9699 26.5156 13.1341 26.6798 13.1341 26.9261C13.1341 27.1723 12.9699 27.3365 12.7236 27.3365Z" fill="black"/>
<path fill-rule="evenodd" clip-rule="evenodd" d="M38.4197 29.1421C38.1734 29.1421 38.0092 28.9779 38.0092 28.7316V0.821085H4.02403V28.7316C4.02403 28.9779 3.85985 29.1421 3.61357 29.1421C3.3673 29.1421 3.20312 28.9779 3.20312 28.7316V0.41045C3.20312 0.164178 3.3673 0 3.61357 0H38.4196C38.6659 0 38.8301 0.164178 38.8301 0.41045V28.7316C38.8301 28.9779 38.6659 29.1421 38.4197 29.1421Z" fill="black"/>
<path fill-rule="evenodd" clip-rule="evenodd" d="M25.7766 29.1421H21.8362C21.59 29.1421 21.4258 28.9779 21.4258 28.7317V21.9181C21.4258 21.754 21.5079 21.5898 21.6721 21.5077C21.8362 21.5077 22.0004 21.5077 22.1646 21.6719L23.8064 23.3958L25.4482 21.6719C25.6123 21.5077 25.7765 21.5077 25.9407 21.5077C26.1049 21.5898 26.187 21.754 26.187 21.9181V28.7317C26.187 28.9779 26.0228 29.1421 25.7766 29.1421ZM22.2467 28.3212H25.3661V22.9031L24.1348 24.2165C24.0527 24.2986 23.8885 24.3807 23.8064 24.3807C23.7243 24.3807 23.5601 24.2986 23.4781 24.2165L22.2467 22.9031V28.3212Z" fill="black"/>
<path fill-rule="evenodd" clip-rule="evenodd" d="M23.8085 24.3802C23.7264 24.3802 23.5622 24.2981 23.4801 24.2161L11.8235 12.1488C11.7414 11.9846 11.7414 11.6562 11.9055 11.5741L17.4056 6.2384C17.4056 6.15631 17.5698 6.07422 17.6519 6.07422H29.8835C29.9656 6.07422 30.1298 6.15631 30.1298 6.15631L35.6298 11.492C35.794 11.6562 35.794 11.9846 35.7119 12.0667L24.1372 24.2159C24.0552 24.298 23.891 24.3801 23.8089 24.3801L23.8085 24.3802ZM12.7264 11.8204L23.8085 23.395L34.8086 11.8204L29.7192 6.89484H17.8162L12.7264 11.8204Z" fill="black"/>
<path fill-rule="evenodd" clip-rule="evenodd" d="M23.8053 24.3809C23.6412 24.3809 23.5591 24.2988 23.477 24.1346L16.5815 12.0673C16.4173 11.821 16.4994 11.5748 16.7457 11.4927C16.9099 11.3285 17.1561 11.4106 17.2382 11.6569L23.8055 23.1496L30.2907 11.5749C30.3728 11.4107 30.6191 11.3286 30.7833 11.4928C31.0295 11.5749 31.1116 11.8212 30.9474 11.9854L24.1339 24.1346C24.1339 24.2988 23.9695 24.3809 23.8053 24.3809Z" fill="black"/>
<path fill-rule="evenodd" clip-rule="evenodd" d="M23.8065 24.3813C23.6423 24.3813 23.4781 24.2171 23.3961 24.0529L21.2617 11.9037C21.2617 11.6574 21.3438 11.4932 21.5901 11.4111C21.8364 11.4111 22.0005 11.4932 22.0826 11.7395L23.8065 21.5905L25.4483 11.7395C25.5304 11.5753 25.6946 11.4111 25.9409 11.4111C26.1871 11.4932 26.3513 11.6574 26.2692 11.9037L24.217 24.0529C24.217 24.2171 23.9707 24.3813 23.8065 24.3813Z" fill="black"/>
<path fill-rule="evenodd" clip-rule="evenodd" d="M35.3801 12.232H12.1487C11.9025 12.232 11.7383 12.0679 11.7383 11.8216C11.7383 11.5753 11.9025 11.4111 12.1487 11.4111H35.3801C35.6263 11.4111 35.7905 11.5753 35.7905 11.8216C35.7905 12.0679 35.6263 12.232 35.3801 12.232Z" fill="black"/>
<path fill-rule="evenodd" clip-rule="evenodd" d="M21.8351 12.2314C21.753 12.2314 21.6709 12.2314 21.5888 12.1493L16.5813 7.63443C16.4171 7.47025 16.4171 7.22398 16.4992 7.0598C16.6634 6.81352 16.9097 6.81352 17.0739 6.97771L22.0813 11.4926C22.2455 11.6568 22.3276 11.903 22.1634 12.0672C22.0813 12.1493 21.9172 12.2314 21.8351 12.2314Z" fill="black"/>
<path fill-rule="evenodd" clip-rule="evenodd" d="M16.6639 12.2324C16.5819 12.2324 16.4177 12.1503 16.3356 12.0682C16.1714 11.904 16.2535 11.6578 16.4177 11.4936L22.4923 6.15785C22.6565 5.99367 22.9027 6.07576 23.0669 6.23994C23.2311 6.40412 23.149 6.65039 22.9848 6.81458L16.9102 12.1503C16.8281 12.2324 16.746 12.2324 16.6639 12.2324Z" fill="black"/>
<path fill-rule="evenodd" clip-rule="evenodd" d="M26.351 12.2324C26.2689 12.2324 26.1868 12.2324 26.1047 12.1503L18.8806 6.81458C18.7164 6.6504 18.6343 6.40413 18.7985 6.23994C18.9627 6.07576 19.2089 5.99367 19.3731 6.15785L26.5973 11.4936C26.7614 11.5757 26.8435 11.904 26.6794 12.0682C26.5973 12.1503 26.4331 12.2324 26.351 12.2324Z" fill="black"/>
<path fill-rule="evenodd" clip-rule="evenodd" d="M21.1796 12.2324C21.0154 12.2324 20.9333 12.1503 20.8512 12.0682C20.687 11.904 20.7691 11.5757 20.9333 11.4936L28.2394 6.15785C28.4036 5.99367 28.6499 6.07576 28.814 6.23994C28.9782 6.40412 28.8961 6.65039 28.732 6.81458L21.4258 12.1503C21.3438 12.2324 21.2617 12.2324 21.1796 12.2324Z" fill="black"/>
<path fill-rule="evenodd" clip-rule="evenodd" d="M30.6208 12.2324C30.5387 12.2324 30.4567 12.2324 30.3746 12.1503L24.6282 6.81458C24.464 6.6504 24.464 6.40413 24.5461 6.23994C24.7103 6.07576 24.9566 5.99367 25.1207 6.15785L30.8671 11.4936C31.0313 11.6578 31.0313 11.904 30.9492 12.0682C30.8671 12.1503 30.7029 12.2324 30.6208 12.2324Z" fill="black"/>
<path fill-rule="evenodd" clip-rule="evenodd" d="M25.6952 12.2321C25.6131 12.2321 25.4489 12.15 25.3668 12.0679C25.2027 11.9037 25.2847 11.6575 25.4489 11.4933L30.5384 6.97841C30.7025 6.81423 30.9488 6.89632 31.113 7.0605C31.2772 7.22468 31.1951 7.47095 31.0309 7.63513L25.9415 12.15C25.8594 12.2321 25.7773 12.2321 25.6952 12.2321Z" fill="black"/>
</svg>
