<svg width="30" height="34" viewBox="0 0 30 34" fill="none" xmlns="http://www.w3.org/2000/svg">
<path d="M15 33.3307C15.2328 33.3302 15.4628 33.2805 15.675 33.1847C15.8872 33.089 16.0767 32.9494 16.2311 32.7751L29.5768 17.7756C29.8494 17.4691 30 17.0731 30 16.6629C30 16.2526 29.8494 15.8567 29.5768 15.5501L16.2311 0.553932C16.0767 0.379776 15.8872 0.240349 15.675 0.144862C15.4628 0.0493744 15.2327 0 15 0C14.7673 0 14.5372 0.0493744 14.325 0.144862C14.1128 0.240349 13.9233 0.379776 13.7689 0.553932L0.423236 15.5535C0.150606 15.86 0 16.256 0 16.6662C0 17.0764 0.150606 17.4724 0.423236 17.7789L13.7689 32.7751C13.9233 32.9494 14.1128 33.089 14.325 33.1847C14.5372 33.2805 14.7672 33.3302 15 33.3307ZM15 1.83167L21.8926 16.109H8.10744L15 1.83167ZM21.8926 17.2201L15 31.4974L8.10744 17.2201H21.8926ZM23.1259 17.2201H28.5851L16.6511 30.633L23.1259 17.2201ZM23.1259 16.109L16.6511 2.69609L28.5851 16.109H23.1259ZM6.87414 16.109H1.41487L13.3489 2.69609L6.87414 16.109ZM6.87414 17.2201L13.3489 30.633L1.41487 17.2201H6.87414Z" fill="black"/>
<path d="M12.0077 13.2886C12.0754 13.3171 12.1482 13.3316 12.2216 13.3314C12.3313 13.3314 12.4385 13.299 12.5297 13.2382C12.6209 13.1774 12.6922 13.091 12.7344 12.9898L13.8454 10.3232C13.8735 10.2558 13.8881 10.1836 13.8883 10.1107C13.8884 10.0377 13.8743 9.96543 13.8465 9.89795C13.8187 9.83048 13.778 9.76913 13.7265 9.71741C13.6751 9.66569 13.6139 9.62462 13.5466 9.59653C13.4792 9.56844 13.407 9.55389 13.3341 9.55371C13.2611 9.55353 13.1888 9.56772 13.1213 9.59548C13.0539 9.62323 12.9925 9.664 12.9408 9.71546C12.8891 9.76693 12.848 9.82807 12.8199 9.89541L11.7088 12.562C11.6808 12.6293 11.6662 12.7015 11.666 12.7745C11.6658 12.8475 11.68 12.9197 11.7078 12.9872C11.7355 13.0547 11.7763 13.116 11.8278 13.1678C11.8792 13.2195 11.9404 13.2606 12.0077 13.2886Z" fill="black"/>
<path d="M13.6735 14.9549C13.7413 14.9834 13.814 14.9979 13.8874 14.9977C13.9971 14.9977 14.1043 14.9653 14.1955 14.9045C14.2868 14.8437 14.358 14.7572 14.4002 14.656L16.6223 9.32288C16.6764 9.18738 16.675 9.03606 16.6184 8.90161C16.5618 8.76715 16.4546 8.66034 16.32 8.60424C16.1853 8.54814 16.034 8.54727 15.8987 8.60179C15.7634 8.65632 15.655 8.76188 15.5968 8.89567L13.3747 14.2288C13.3181 14.3648 13.3178 14.5176 13.3739 14.6537C13.4299 14.7899 13.5377 14.8982 13.6735 14.9549Z" fill="black"/>
</svg>
