<svg width="33" height="35" viewBox="0 0 33 35" fill="none" xmlns="http://www.w3.org/2000/svg">
<path d="M26.3963 21.5616C27.2704 20.3632 26.6494 18.6995 25.1878 18.3824C25.7855 17.4953 25.627 16.3435 24.8053 15.6571C26.0662 15.1902 27.4347 14.5154 28.303 13.9817C28.8992 13.6676 29.5551 13.2865 29.9478 12.7281C30.8291 11.5443 30.3957 10.055 29.5202 8.85388C29.209 8.42487 28.8789 8.10346 28.5371 7.89114C30.0671 6.59243 30.1805 6.6157 30.275 6.34377C30.3478 6.14744 30.3201 5.92928 30.1994 5.75914L27.6922 2.22371C27.5875 2.07536 27.4275 1.98084 27.2341 1.95757C24.4534 1.68997 25.3915 1.78014 17.3315 1.00354C17.1265 0.981724 16.9228 1.06171 16.7905 1.21732L14.247 4.12885C14.0521 4.32373 14.0114 4.6742 14.2077 4.93891L14.2615 5.00872C12.624 6.02965 13.053 9.26415 11.8648 11.8584C10.5908 14.6346 8.41226 16.374 7.62387 18.4828C7.46099 18.9205 7.32719 19.1445 7.21519 19.7029C7.10466 20.2541 7.04504 20.4635 5.98484 20.7995L5.54999 20.9362C5.05844 20.3763 4.41707 20.225 3.68702 20.3835C2.17163 20.7151 1.15215 21.4655 1.11142 21.4873C0.999439 21.563 0.963079 21.72 1.04307 21.8393C1.1216 21.9556 1.28012 21.9862 1.39501 21.9076C1.69751 21.7026 1.98839 21.5484 1.95347 21.5673C2.51192 21.2634 3.73937 20.7587 4.39236 20.8431C4.96827 20.9158 5.31731 21.3826 5.56452 21.9047L9.28756 29.7246C9.60314 30.3892 9.99873 31.2313 9.55515 31.8145C8.8178 32.7845 8.01794 33.2528 6.72504 33.4942C6.58689 33.5204 6.49672 33.6527 6.52144 33.7909C6.52726 33.8214 6.53889 33.8505 6.55343 33.8752C6.6087 33.9668 6.71486 34.0148 6.81812 33.9959C8.14445 33.7472 9.19301 33.1902 9.98125 32.0879C10.134 31.8741 10.2372 31.6138 10.2576 31.3185C13.9152 29.9646 17.1742 31.6705 22.5205 28.8302C24.7049 27.6653 28.0775 25.5507 27.5392 23.144C27.3879 22.4809 26.9897 21.8088 26.3963 21.5616ZM26.1869 19.7975C26.4196 20.3807 26.2291 21.1224 25.7434 21.5209C25.7419 21.5223 25.7419 21.5223 25.7405 21.5238C25.7361 21.5281 25.7317 21.5339 25.7274 21.5383C25.7114 21.5543 25.6968 21.5718 25.6852 21.5921C25.6823 21.5965 25.6779 21.5994 25.6765 21.6037C25.6343 21.6881 24.6032 23.6645 21.3049 23.9045C21.2962 23.9045 21.2889 23.9103 21.2816 23.9117C21.2743 23.9132 21.2656 23.9117 21.2583 23.9132C20.4236 24.1313 19.4637 23.7736 18.978 23.061C18.5126 22.3818 18.5082 21.4263 18.9474 20.7341C21.6597 20.833 23.7103 19.9153 24.7677 18.8522C25.3625 18.8478 25.9644 19.239 26.1869 19.7975ZM24.4956 18.4014C24.4897 18.4057 24.4868 18.4115 24.4825 18.4174C23.0718 19.8164 20.8496 20.324 18.8193 20.2222H18.8121C18.2187 20.2091 17.6341 19.8499 17.3563 19.3292C17.0814 18.8173 17.1018 18.1425 17.4203 17.6262C17.8362 16.9704 18.6419 16.665 19.3763 16.4526C20.9034 16.0091 22.4769 15.7865 24.0651 15.7924C24.0826 15.8069 24.1015 15.82 24.1233 15.8287C25.1704 16.2796 25.3536 17.6815 24.4956 18.4014ZM25.2649 9.16487C25.2489 9.43246 25.2649 9.73349 25.2911 9.91383L21.8792 12.7308L25.6358 5.97686L29.5669 6.3826L28.0268 7.65514C27.4175 7.46898 26.795 7.61441 26.222 7.90964C25.6286 8.21359 25.2969 8.64714 25.2649 9.16487ZM16.289 12.5738C16.2279 11.7245 17.0656 11.1907 17.6662 9.5066L19.6485 12.1243C18.978 12.3919 18.2538 12.6712 17.4394 12.9736C17.0481 13.1191 16.6875 13.1336 16.4955 13.0115C16.3719 12.9315 16.305 12.7875 16.289 12.5738ZM14.7809 4.85589L18.5579 5.24711L20.6463 12.6031L14.7809 4.85589ZM24.3897 2.19452L25.127 5.41435L19.1091 4.7919L20.5561 1.82363C25.8105 2.33119 23.9984 2.15671 24.3897 2.19452ZM25.0863 5.92202L21.2411 12.8372L19.1033 5.30251L25.0863 5.92202ZM29.666 5.88421L25.6608 5.46973L24.922 2.2455L27.1805 2.46365C27.3041 2.47819 27.1369 2.34733 29.666 5.88421ZM17.1763 1.55022C17.1981 1.52405 17.2316 1.5095 17.2665 1.5095H17.2796L20.0152 1.77273L18.571 4.73806L14.7374 4.34103L17.1763 1.55022ZM22.2825 28.3837C17.1588 31.1061 13.9131 29.5078 10.2247 30.7935C10.1403 30.3412 9.92071 29.8714 9.73311 29.4788C5.80493 21.2401 6.01297 21.6414 5.85742 21.3726C6.23989 21.2505 6.64421 21.1385 6.9816 20.9422C6.89143 21.8657 7.07903 22.8182 7.53279 23.6283C7.60114 23.7519 7.75675 23.794 7.87746 23.7257C7.99962 23.6573 8.04325 23.5032 7.9749 23.381C7.48335 22.5041 7.33648 21.4395 7.56917 20.4622C7.72187 19.8253 7.68842 19.6798 7.97784 18.9658C8.27307 18.2357 8.33851 17.8227 9.88445 15.8375C12.8542 12.001 12.7204 11.1938 13.465 7.58432C13.6351 6.77571 13.8562 5.82749 14.5659 5.4174L17.2883 9.01244C16.7371 10.8943 15.6944 11.4528 15.7788 12.6104C15.7889 12.7384 15.8122 12.8475 15.8442 12.9435C15.8369 12.9915 15.8398 13.0424 15.8631 13.0889C16.3634 14.12 16.2311 15.5118 15.5286 16.6345C14.9251 17.5972 13.9434 18.4029 12.6083 19.0283C12.4818 19.0879 12.4266 19.2392 12.4862 19.3657C12.5458 19.4922 12.6971 19.5475 12.8236 19.4879C16.0754 17.9637 17.0366 15.5131 16.5656 13.5716C16.9132 13.6443 17.2826 13.5745 17.6171 13.4494C18.4882 13.1251 19.2561 12.8284 19.9658 12.5434C20.7148 13.5221 20.6857 13.5221 20.8253 13.6399C21.0623 13.8115 21.3837 13.8013 21.6063 13.6167L25.4254 10.4622C25.7133 11.2927 26.4041 11.934 27.2054 12.206C27.5268 12.3136 27.6839 11.8322 27.3683 11.7246C26.0041 11.2621 25.7976 9.93285 25.8165 9.96629C25.8122 9.92556 25.7453 9.66815 25.7729 9.19405C25.7933 8.86102 26.0231 8.5818 26.455 8.36218C27.4279 7.85897 28.2612 7.97971 29.112 9.15332C29.8522 10.1684 30.2813 11.4337 29.541 12.4299C29.0945 13.0538 28.5332 13.1992 28.1376 13.4726C27.7638 13.749 26.1088 14.6637 24.2995 15.2949C24.2763 15.2876 24.2544 15.2803 24.2283 15.2803C22.5413 15.2585 20.8601 15.4898 19.2357 15.9624C18.4591 16.1878 17.5021 16.5499 16.9931 17.3527C16.9931 17.3542 16.9757 17.3818 16.9757 17.3833C16.2107 18.6209 16.8521 20.3399 18.3893 20.6788C17.9762 21.5121 18.0301 22.5752 18.558 23.346C19.0641 24.0877 19.9832 24.5196 20.8762 24.4789C20.6173 25.4591 21.3968 26.5847 23.0998 26.5847C23.8968 26.5847 24.893 26.3971 25.7976 25.987C24.9803 26.7694 23.8066 27.5707 22.2825 28.3837ZM26.7415 24.8526C26.7197 24.8613 26.6979 24.8686 26.6776 24.8831C25.3483 25.8822 23.4897 26.2443 22.4716 26.0146C21.4783 25.7906 21.1075 24.9457 21.4624 24.3974C24.4641 24.1371 25.7133 22.5111 26.0376 21.9905C26.5481 22.0865 26.9146 22.69 27.044 23.2586C27.156 23.756 27.0455 24.3232 26.7415 24.8526Z" fill="black" stroke="black" stroke-width="0.4"/>
<path d="M3.61814 21.8369C3.09606 21.8369 2.66992 22.2616 2.66992 22.7851C2.66992 23.3072 3.09457 23.7334 3.61814 23.7334C4.14022 23.7334 4.56636 23.3087 4.56636 22.7851C4.56636 22.2616 4.14026 21.8369 3.61814 21.8369ZM3.61814 23.2243C3.37527 23.2243 3.17748 23.0266 3.17748 22.7837C3.17748 22.5408 3.37527 22.343 3.61814 22.343C3.86101 22.343 4.0588 22.5408 4.0588 22.7837C4.05735 23.0266 3.86102 23.2243 3.61814 23.2243Z" fill="black" stroke="black" stroke-width="0.4"/>
<path d="M4.6958 6.30215H4.69725C5.56986 6.36323 6.43952 6.96384 6.85836 7.79427C6.99216 8.05895 7.39791 7.91498 7.33246 7.62411C7.24229 7.22709 7.34409 6.69916 7.62332 6.09707C7.83856 5.6346 8.2065 5.25068 8.65877 5.01653C8.92346 4.87983 8.77366 4.47409 8.48135 4.54535C7.89817 4.68932 6.88889 4.35919 6.45549 3.56369C6.41041 3.48079 6.40314 3.45607 6.37405 3.39645C6.33187 3.13031 5.9523 3.09395 5.85632 3.36009C5.82869 3.44007 5.89413 4.69953 4.79757 5.66081C4.56051 5.86733 4.47326 5.8746 4.46162 6.03021C4.45144 6.16982 4.55618 6.29051 4.6958 6.30215ZM6.25627 4.17011C6.64019 4.6384 7.2074 4.92928 7.76295 5.04272C7.2743 5.51536 6.95144 6.22218 6.83509 6.8708C6.4177 6.40542 5.8709 6.05929 5.29063 5.89496C5.7473 5.44268 6.09775 4.83616 6.25627 4.17011Z" fill="black" stroke="black" stroke-width="0.4"/>
<path d="M31.9285 18.9428C31.6042 18.6883 31.3424 18.38 31.1621 17.9509C31.005 17.5757 31.0007 17.3576 30.973 17.0754C31.0007 16.8267 30.6851 16.6915 30.5237 16.8878C30.5237 16.8878 30.5237 16.8893 30.5222 16.8893C30.0888 17.4216 29.3122 17.7095 28.588 17.6019C28.46 17.583 28.3407 17.663 28.3058 17.7851C28.2724 17.9088 28.3349 18.0382 28.4542 18.0876C28.7465 18.2084 29.0388 18.5108 29.2991 18.9632C29.4984 19.3093 29.5783 19.7179 29.5245 20.112C29.4838 20.4087 29.9056 20.5178 30.0132 20.2386C30.1862 19.7936 30.8596 19.3122 31.5431 19.3922C31.5809 19.3965 31.6188 19.4024 31.674 19.4096C31.834 19.4882 32.0056 19.3878 32.0449 19.2307C32.0638 19.1537 32.0405 19.0271 31.9285 18.9428ZM30.0073 19.4183C29.9128 18.934 29.635 18.4585 29.3035 18.0964C29.7485 18.0266 30.1746 17.8491 30.5222 17.5859C30.5978 18.0004 30.8116 18.4876 31.1432 18.8875C30.7171 18.9413 30.3186 19.1478 30.0073 19.4183Z" fill="black" stroke="black" stroke-width="0.4"/>
<path d="M18.8429 27.8691C17.0454 28.2865 15.1984 28.5366 13.3544 28.6108C13.2148 28.6166 13.1057 28.7344 13.1116 28.874C13.1174 29.0151 13.2381 29.1241 13.3748 29.1169C15.2509 29.0412 17.1283 28.7867 18.9578 28.3621C19.0946 28.3301 19.1789 28.1934 19.1469 28.0567C19.1164 27.9214 18.9796 27.8371 18.8429 27.8691Z" fill="black" stroke="black" stroke-width="0.4"/>
<path d="M12.4208 28.7212L11.8987 28.778C11.7591 28.7925 11.6587 28.9176 11.6733 29.0572C11.6878 29.1954 11.8129 29.2972 11.9525 29.2826L12.4746 29.2259C12.6142 29.2114 12.7145 29.0863 12.7 28.9467C12.6855 28.8071 12.5589 28.7067 12.4208 28.7212Z" fill="black" stroke="black" stroke-width="0.4"/>
<path d="M29.3436 3.4393C29.4352 3.4393 29.524 3.38986 29.569 3.30259L29.9588 2.55073C30.0228 2.42566 29.9748 2.27295 29.8497 2.20896C29.7261 2.14497 29.572 2.19297 29.508 2.31804L29.1182 3.07136C29.0309 3.2386 29.156 3.4393 29.3436 3.4393Z" fill="black" stroke="black" stroke-width="0.4"/>
<path d="M29.916 4.32507L30.8526 4.07493C30.9878 4.03857 31.0693 3.89895 31.0329 3.7637C30.9966 3.62845 30.8584 3.54847 30.7217 3.58337L29.7851 3.83351C29.4637 3.92077 29.5873 4.41234 29.916 4.32507Z" fill="black" stroke="black" stroke-width="0.4"/>
</svg>
