<svg width="41" height="35" viewBox="0 0 41 35" fill="none" xmlns="http://www.w3.org/2000/svg">
<path d="M4.83888 33.999C2.72177 33.999 1 32.2773 1 30.1602C1 28.0431 2.72177 26.3213 4.83888 26.3213C6.95598 26.3213 8.67775 28.0431 8.67775 30.1602C8.67775 32.2773 6.95598 33.999 4.83888 33.999ZM4.83888 26.9281C3.05741 26.9281 1.60675 28.3788 1.60675 30.1602C1.60675 31.9417 3.0558 33.3924 4.83888 33.3924C6.62034 33.3924 8.071 31.9417 8.071 30.1602C8.06939 28.3788 6.62034 26.9281 4.83888 26.9281Z" fill="black" stroke="black" stroke-width="0.6"/>
<path d="M20.7432 33.999C18.6261 33.999 16.9043 32.2773 16.9043 30.1602C16.9043 28.0431 18.6261 26.3213 20.7432 26.3213C22.8603 26.3213 24.582 28.0431 24.582 30.1602C24.582 32.2773 22.8603 33.999 20.7432 33.999ZM20.7432 26.9281C18.9617 26.9281 17.511 28.3788 17.511 30.1602C17.511 31.9417 18.9617 33.3908 20.7432 33.3908C22.5246 33.3908 23.9753 31.9401 23.9753 30.1586C23.9753 28.3788 22.5246 26.9281 20.7432 26.9281Z" fill="black" stroke="black" stroke-width="0.6"/>
<path d="M36.6475 33.999C34.5304 33.999 32.8086 32.2773 32.8086 30.1602C32.8086 28.0431 34.5304 26.3213 36.6475 26.3213C38.7646 26.3213 40.4863 28.0431 40.4863 30.1602C40.4863 32.2773 38.7646 33.999 36.6475 33.999ZM36.6475 26.9281C34.866 26.9281 33.4153 28.3788 33.4153 30.1602C33.4153 31.9417 34.8644 33.3924 36.6475 33.3924C38.4289 33.3908 39.8796 31.9417 39.8796 30.1602C39.8796 28.3788 38.4289 26.9281 36.6475 26.9281Z" fill="black" stroke="black" stroke-width="0.6"/>
<path d="M17.3204 31.3396H8.25675C8.16155 31.3396 8.07118 31.2945 8.01471 31.2186C7.95823 31.1428 7.93887 31.0443 7.96469 30.9524C8.03407 30.7087 8.06796 30.4408 8.06796 30.1601C8.06796 29.8744 8.03407 29.6163 7.96469 29.3677C7.93887 29.2758 7.95662 29.1773 8.01471 29.1015C8.0728 29.0257 8.16155 28.9805 8.25675 28.9805H17.3204C17.4156 28.9805 17.506 29.0257 17.5625 29.1015C17.619 29.1773 17.6383 29.2758 17.6125 29.3677C17.5431 29.6162 17.5092 29.8744 17.5092 30.1601C17.5092 30.4424 17.5447 30.7087 17.6125 30.9524C17.6383 31.0443 17.6206 31.1428 17.5625 31.2186C17.5044 31.2961 17.4156 31.3396 17.3204 31.3396ZM8.63267 30.7329H16.9445C16.9155 30.5489 16.901 30.3585 16.901 30.1617C16.901 29.9664 16.9155 29.7744 16.9445 29.5904H8.63267C8.66171 29.7744 8.67624 29.9648 8.67624 30.1617C8.67624 30.3585 8.66172 30.5489 8.63267 30.7329Z" fill="black" stroke="black" stroke-width="0.6"/>
<path d="M33.2267 31.3389H24.163C24.0678 31.3389 23.9774 31.2937 23.921 31.2179C23.8645 31.142 23.8451 31.0436 23.8709 30.9516C23.9403 30.708 23.9742 30.4417 23.9742 30.1593C23.9742 29.8737 23.9403 29.6139 23.8709 29.3686C23.8451 29.2766 23.8629 29.1782 23.921 29.1023C23.979 29.0265 24.0678 28.9813 24.163 28.9813H33.2267C33.3219 28.9813 33.4123 29.0265 33.4687 29.1023C33.5252 29.1782 33.5446 29.2766 33.5188 29.3686C33.4494 29.6155 33.4139 29.8753 33.4139 30.1593C33.4139 30.4417 33.4494 30.7079 33.5188 30.9516C33.5446 31.0436 33.5268 31.142 33.4687 31.2179C33.4123 31.2953 33.3219 31.3389 33.2267 31.3389ZM24.5389 30.7321H32.8508C32.8217 30.5482 32.8072 30.3578 32.8072 30.1609C32.8072 29.9657 32.8217 29.7736 32.8508 29.5897H24.5389C24.568 29.7736 24.5825 29.9641 24.5825 30.1609C24.5825 30.3578 24.568 30.5482 24.5389 30.7321Z" fill="black" stroke="black" stroke-width="0.6"/>
<path d="M20.0862 31.2896C20.0087 31.2896 19.9313 31.2605 19.8715 31.2008L19.2439 30.5731C19.1244 30.4537 19.1244 30.2617 19.2439 30.1439C19.3633 30.0245 19.5553 30.0245 19.6731 30.1439L20.0862 30.557L21.5224 29.1208C21.6418 29.0014 21.8338 29.0014 21.9516 29.1208C22.071 29.2402 22.071 29.4322 21.9516 29.5501L20.2992 31.2024C20.2411 31.2589 20.1636 31.2896 20.0862 31.2896Z" fill="black" stroke="black" stroke-width="0.6"/>
<path d="M20.7446 24.7864C20.6526 24.7864 20.5671 24.746 20.509 24.675L6.24778 7.13797C6.17355 7.0476 6.15903 6.92174 6.20905 6.81524C6.25907 6.71035 6.36558 6.64258 6.48337 6.64258H35.0062C35.124 6.64258 35.2305 6.71035 35.2805 6.81524C35.3306 6.92013 35.316 7.04599 35.2418 7.13797L20.9806 24.675C20.9225 24.746 20.8366 24.7864 20.7446 24.7864ZM7.12201 7.25096L20.7446 24.0023L34.3672 7.25096H7.12201Z" fill="black" stroke="black" stroke-width="0.6"/>
<path d="M20.7436 24.7864C20.6129 24.7864 20.4967 24.7041 20.4564 24.5798L14.5586 7.04276C14.528 6.95078 14.5425 6.84751 14.6006 6.76844C14.6571 6.68937 14.749 6.64258 14.8475 6.64258H26.645C26.7434 6.64258 26.8338 6.68937 26.8919 6.76844C26.9484 6.84751 26.9645 6.94917 26.9339 7.04276L21.0361 24.5798C20.9893 24.7041 20.8748 24.7864 20.7441 24.7864H20.7436ZM15.2685 7.25096L20.7436 23.531L26.2187 7.25096H15.2685Z" fill="black" stroke="black" stroke-width="0.6"/>
<path d="M35.0043 7.24891H6.48142C6.36362 7.24891 6.25712 7.18114 6.2071 7.07625C6.15708 6.97136 6.1716 6.8455 6.24583 6.75352L10.8332 1.11232C10.8913 1.04132 10.9768 1.00098 11.0688 1.00098H30.4181C30.5101 1.00098 30.5956 1.04132 30.6537 1.11232L35.2411 6.75352C35.3153 6.84388 35.3299 6.96975 35.2798 7.07625C35.2282 7.18114 35.1205 7.24891 35.0043 7.24891ZM7.11882 6.64216H34.3652L30.2714 1.60903H11.2125L7.11882 6.64216Z" fill="black" stroke="black" stroke-width="0.6"/>
<path d="M26.6423 7.25034C26.5648 7.25034 26.489 7.22129 26.4325 7.16643L20.7442 1.72516L15.0559 7.16643C14.9914 7.22936 14.9026 7.26002 14.8123 7.24873C14.7235 7.23904 14.6428 7.19064 14.5928 7.11641L10.8153 1.47355C10.7217 1.33478 10.7588 1.14598 10.8992 1.0524C11.038 0.958814 11.2267 0.995927 11.3203 1.1347L14.8978 6.476L20.5345 1.08472C20.6523 0.971761 20.8378 0.971761 20.954 1.08472L26.5907 6.476L30.1632 1.1347C30.2568 0.995927 30.444 0.958815 30.5844 1.05079C30.7232 1.14438 30.7619 1.33318 30.6683 1.47194L26.894 7.11315C26.844 7.18737 26.7633 7.23579 26.6745 7.24546C26.6649 7.24869 26.6536 7.25034 26.6423 7.25034Z" fill="black" stroke="black" stroke-width="0.6"/>
</svg>
