<svg width="34" height="33" viewBox="0 0 34 33" fill="none" xmlns="http://www.w3.org/2000/svg">
<path fill-rule="evenodd" clip-rule="evenodd" d="M16.9996 30.3779L22.8783 18.1754H11.1213L16.9996 30.3779ZM23.0292 16.5801L21.5577 12.2944H12.4398L10.9698 16.5801H23.0292ZM27.7588 5.74219L29.4272 7.53791C29.4494 7.55872 29.4701 7.58102 29.4894 7.6048L33.7692 12.2113C34.0564 12.4997 34.08 12.965 33.8151 13.2831L17.6153 32.7057C17.5842 32.7443 17.5486 32.78 17.5087 32.8142C17.1726 33.0966 16.6737 33.052 16.3925 32.7146L0.18357 13.2832C0.0666207 13.1435 0.00444162 12.9711 0 12.7972V12.7957V12.7585V12.757C0 12.7318 0.00296096 12.705 0.00592153 12.6797C0.0236861 12.5251 0.0873412 12.3735 0.196892 12.2486L0.214657 12.2308L4.51227 7.60491C4.53151 7.58112 4.55224 7.55883 4.57444 7.53801L6.24282 5.7423C6.3346 5.64419 6.45155 5.56689 6.58923 5.52378L11.5842 3.98079C11.6745 3.94511 11.7736 3.9243 11.8773 3.9243H22.126V3.92727C22.203 3.92727 22.2814 3.93916 22.3584 3.96295L27.3844 5.51485C27.5236 5.55201 27.6537 5.62773 27.7588 5.74219ZM20.4961 26.7734L21.2851 25.1367L24.7389 17.9658L30.1245 15.2306L20.4961 26.7734ZM3.87448 15.2307L9.26013 17.9659L13.5028 26.7736L3.87448 15.2307ZM5.29416 9.09137L2.08915 12.5401L9.40229 16.2548L10.8975 11.898L5.29416 9.09137ZM27.5739 7.8769L26.7419 6.98053L22.0123 5.51931H11.9872L7.25754 6.98053L6.42557 7.8769L12.0629 10.7013H21.9398L27.5771 7.8769H27.5739ZM31.9071 12.5416L28.7021 9.09293L23.0989 11.8994L24.5941 16.2563L31.9071 12.5416ZM3.41254 1.64395C3.41254 3.14977 2.18529 4.3806 0.687155 4.3806C2.18677 4.3806 3.41254 5.61292 3.41254 7.11725C3.41254 5.61144 4.63978 4.3806 6.13792 4.3806C4.63831 4.3806 3.41254 3.14829 3.41254 1.64395ZM30.0403 21.9243C30.0403 23.6725 28.6147 25.104 26.8737 25.104C28.6147 25.104 30.0403 26.5355 30.0403 28.2836C30.0403 26.5355 31.4659 25.104 33.2069 25.104C31.4659 25.104 30.0403 23.6725 30.0403 21.9243ZM24.973 27.1644C24.973 28.2139 24.1173 29.0731 23.0722 29.0731C24.1173 29.0731 24.973 29.9323 24.973 30.9818C24.973 29.9323 25.8286 29.0731 26.8738 29.0731C25.8286 29.0731 24.973 28.2139 24.973 27.1644ZM7.77533 0C7.77533 0.903794 8.51108 1.64407 9.41263 1.64407C8.51256 1.64407 7.77533 2.38286 7.77533 3.28814C7.77533 2.38434 7.03959 1.64407 6.13804 1.64407C7.03811 1.64407 7.77533 0.905278 7.77533 0Z" fill="black"/>
</svg>
