<svg width="33" height="27" viewBox="0 0 33 27" fill="none" xmlns="http://www.w3.org/2000/svg">
<path d="M0.251481 8.21627C0.236972 8.26202 0.229656 8.30967 0.229784 8.35758C0.228093 8.36455 0.228093 8.3718 0.229784 8.37877C0.229972 8.42726 0.239796 8.47525 0.258713 8.52008C0.258713 8.52008 0.258713 8.52008 0.258713 8.54128C0.279912 8.58959 0.307905 8.63477 0.341882 8.67553L5.91057 15.1122C5.38513 15.6089 4.68535 15.8907 3.9543 15.9C3.81045 15.9 3.67248 15.9559 3.57076 16.0552C3.46904 16.1546 3.4119 16.2894 3.4119 16.43C3.4119 16.5705 3.46904 16.7053 3.57076 16.8047C3.67248 16.904 3.81045 16.9599 3.9543 16.9599C5.76232 16.9599 7.24128 18.7439 7.24128 20.9342C7.24128 21.0748 7.29842 21.2096 7.40014 21.3089C7.50186 21.4083 7.63983 21.4641 7.78368 21.4641C7.92754 21.4641 8.0655 21.4083 8.16722 21.3089C8.26894 21.2096 8.32609 21.0748 8.32609 20.9342C8.3224 20.123 8.53687 19.3251 8.94804 18.6203L16.0536 26.8269C16.0783 26.8523 16.1049 26.8759 16.1331 26.8975C16.1752 26.9283 16.2214 26.9533 16.2705 26.9717H16.3067C16.4092 27.0094 16.5223 27.0094 16.6249 26.9717H16.661C16.7101 26.9533 16.7564 26.9283 16.7985 26.8975C16.8267 26.8759 16.8532 26.8523 16.878 26.8269L32.5824 8.70025C32.6164 8.6595 32.6444 8.61432 32.6656 8.56601C32.6656 8.56601 32.6656 8.56601 32.6656 8.54481C32.6845 8.49998 32.6944 8.45199 32.6945 8.4035C32.6962 8.39653 32.6962 8.38927 32.6945 8.38231C32.6947 8.3344 32.6874 8.28675 32.6728 8.24099C32.6728 8.24099 32.6728 8.241 32.6728 8.21273C32.6546 8.16409 32.6303 8.11781 32.6005 8.07495L26.5943 0.182749V0.161552C26.5769 0.139866 26.5575 0.119765 26.5364 0.101495L26.5003 0.0732331L26.4641 0.0485035H26.4424L26.399 0.027307L26.3267 0.00257741H26.2869C26.2593 -0.000859138 26.2314 -0.000859138 26.2038 0.00257741H6.74226C6.71465 -0.000859138 6.68671 -0.000859138 6.6591 0.00257741H6.61932L6.547 0.027307L6.50361 0.0485035H6.48191L6.44575 0.0732331L6.40959 0.101495C6.38848 0.119765 6.36912 0.139866 6.35173 0.161552L6.33365 0.182749L0.334649 8.04316C0.304857 8.08602 0.280568 8.13229 0.262329 8.18094C0.262329 8.18094 0.255097 8.2092 0.251481 8.21627ZM6.72418 1.44041L10.7741 7.83826H1.85338L6.72418 1.44041ZM31.0854 7.83826H22.1647L26.2327 1.44041L31.0854 7.83826ZM20.494 8.89809L16.4694 24.3363L12.4448 8.89809H20.494ZM12.6943 7.83826L16.4694 1.5464L20.2445 7.83826H12.6943ZM21.6114 8.89809H31.0131L17.5759 24.3857L21.6114 8.89809ZM21.2028 7.34367L17.4168 1.02708H25.1985L21.2028 7.34367ZM11.736 7.34367L7.75837 1.03768H15.522L11.736 7.34367ZM11.3274 8.89809L15.3629 24.3857L9.63509 17.7724C10.1643 17.263 10.8739 16.9721 11.6167 16.9599C11.7605 16.9599 11.8985 16.904 12.0002 16.8047C12.1019 16.7053 12.1591 16.5705 12.1591 16.43C12.1591 16.2894 12.1019 16.1546 12.0002 16.0552C11.8985 15.9559 11.7605 15.9 11.6167 15.9C9.80866 15.9 8.32609 14.1337 8.32609 11.9257C8.32609 11.7851 8.26894 11.6503 8.16722 11.551C8.0655 11.4516 7.92754 11.3958 7.78368 11.3958C7.63983 11.3958 7.50186 11.4516 7.40014 11.551C7.29842 11.6503 7.24128 11.7851 7.24128 11.9257C7.24719 12.7491 7.02745 13.559 6.60485 14.2714L1.94017 8.89809H11.3274ZM7.79091 18.5072C7.39024 17.6471 6.7354 16.9236 5.91057 16.43C6.32917 16.1861 6.70415 15.877 7.0207 15.515C7.05016 15.4869 7.0768 15.4561 7.10025 15.4231C7.37364 15.0985 7.60557 14.7426 7.79091 14.3633C8.18817 15.2245 8.84227 15.9485 9.66764 16.4406C9.24344 16.6912 8.86364 17.0073 8.54305 17.3767C8.5046 17.4105 8.47168 17.4498 8.44542 17.4933C8.18733 17.8051 7.96766 18.1454 7.79091 18.5072ZM25.3685 12.8371C25.4225 12.8828 25.4667 12.9383 25.4987 13.0007C25.5307 13.0631 25.5497 13.131 25.5548 13.2006C25.5598 13.2702 25.5507 13.3401 25.5281 13.4062C25.5054 13.4724 25.4696 13.5335 25.4227 13.5861L21.7307 17.7689C21.6795 17.8265 21.6162 17.8728 21.545 17.9045C21.4739 17.9362 21.3967 17.9526 21.3185 17.9526C21.1854 17.9551 21.0563 17.9084 20.9569 17.8219C20.9027 17.7768 20.8583 17.7217 20.826 17.6598C20.7938 17.5978 20.7744 17.5302 20.769 17.4609C20.7636 17.3916 20.7723 17.322 20.7947 17.256C20.817 17.19 20.8525 17.129 20.899 17.0765L24.6019 12.8937C24.6483 12.8406 24.705 12.7971 24.7687 12.7655C24.8324 12.734 24.9019 12.715 24.9731 12.7098C25.0444 12.7045 25.116 12.7131 25.1838 12.7349C25.2516 12.7568 25.3144 12.7915 25.3685 12.8371ZM26.9197 11.7243C26.914 11.8574 26.8572 11.9836 26.7606 12.0776C26.7106 12.1271 26.6509 12.1664 26.585 12.1931C26.5192 12.2198 26.4486 12.2334 26.3773 12.233C26.2337 12.2321 26.0961 12.1763 25.994 12.0776C25.8974 11.9836 25.8406 11.8574 25.8349 11.7243C25.8312 11.6903 25.8312 11.6559 25.8349 11.6219C25.8591 11.5201 25.9102 11.4263 25.9832 11.3498C26.0871 11.2547 26.2241 11.2018 26.3665 11.2018C26.5089 11.2018 26.6459 11.2547 26.7498 11.3498C26.7746 11.3753 26.7976 11.4025 26.8185 11.4311C26.8375 11.4605 26.8544 11.4912 26.8691 11.5229C26.8825 11.5547 26.8923 11.5879 26.898 11.6219C26.9091 11.6551 26.9163 11.6895 26.9197 11.7243ZM27.8491 17.8819C27.8491 17.7414 27.7919 17.6066 27.6902 17.5072C27.5885 17.4078 27.4505 17.352 27.3067 17.352C27.1628 17.352 27.0248 17.4078 26.9231 17.5072C26.8214 17.6066 26.7642 17.7414 26.7642 17.8819C26.7642 19.295 25.8385 20.4114 24.7031 20.4114C24.5593 20.4114 24.4213 20.4672 24.3196 20.5666C24.2178 20.666 24.1607 20.8008 24.1607 20.9413C24.1607 21.0818 24.2178 21.2166 24.3196 21.316C24.4213 21.4154 24.5593 21.4712 24.7031 21.4712C25.8385 21.4712 26.7642 22.6052 26.7642 24.0007C26.7642 24.1412 26.8214 24.276 26.9231 24.3754C27.0248 24.4748 27.1628 24.5306 27.3067 24.5306C27.4505 24.5306 27.5885 24.4748 27.6902 24.3754C27.7919 24.276 27.8491 24.1412 27.8491 24.0007C27.8491 22.5876 28.7711 21.4712 29.9066 21.4712C30.0504 21.4712 30.1884 21.4154 30.2901 21.316C30.3918 21.2166 30.449 21.0818 30.449 20.9413C30.449 20.8008 30.3918 20.666 30.2901 20.5666C30.1884 20.4672 30.0504 20.4114 29.9066 20.4114C28.7639 20.4043 27.8491 19.2703 27.8491 17.8749V17.8819ZM27.3175 21.9693C27.0769 21.5549 26.7505 21.1939 26.3593 20.9095C26.7505 20.6251 27.0769 20.2641 27.3175 19.8497C27.557 20.2649 27.8835 20.6261 28.2758 20.9095C27.8835 21.1929 27.557 21.5541 27.3175 21.9693Z" fill="black"/>
</svg>
