<svg width="25" height="25" viewBox="0 0 25 25" fill="none" xmlns="http://www.w3.org/2000/svg">
<path fill-rule="evenodd" clip-rule="evenodd" d="M2.05784 6.25827H4.09969C3.95197 6.03775 3.83046 5.80026 3.73754 5.55311C3.53979 5.02606 3.4695 4.44691 3.54693 3.86775C3.62437 3.28859 3.84356 2.74941 4.17355 2.29386C4.50471 1.83706 4.94548 1.46268 5.4649 1.21671L5.46609 1.21792L5.50302 1.20338C6.43579 0.875032 7.41501 0.944095 8.43714 1.41178C9.38303 1.84432 10.367 2.61976 11.3867 3.73689H13.5323C14.552 2.61976 15.536 1.84432 16.4819 1.41178C17.5052 0.944101 18.4832 0.875025 19.416 1.20338L19.4529 1.21792L19.4541 1.21671C19.9735 1.46267 20.4143 1.83585 20.7455 2.29386C21.0754 2.7482 21.2946 3.28859 21.3721 3.86775C21.4495 4.44691 21.3792 5.02606 21.1815 5.55311C21.0885 5.80029 20.967 6.03655 20.8193 6.25827H22.941C23.2328 6.25827 23.4973 6.37943 23.6891 6.57449C23.8809 6.76956 24 7.03854 24 7.33538V10.483C24 10.7787 23.8809 11.0476 23.6891 11.2427L23.6879 11.2439C23.5247 11.4099 23.3091 11.5226 23.0696 11.5517V22.2965C23.0696 22.7641 22.8814 23.1894 22.5776 23.4984L22.5788 23.4996C22.2751 23.8086 21.8569 24 21.3959 24L14.5079 23.9988H3.60411C3.14428 23.9988 2.72614 23.8074 2.42237 23.4984H2.42117C2.1174 23.1894 1.92917 22.7641 1.92917 22.2952L1.93036 11.5505C1.68973 11.5202 1.4741 11.4087 1.31091 11.2427C1.11912 11.0476 1 10.7787 1 10.4818V7.33417C1 7.03975 1.11913 6.77077 1.31091 6.57449L1.3133 6.57207C1.50509 6.37942 1.76956 6.25827 2.05784 6.25827ZM14.0802 4.27485V6.01838C14.2041 5.95174 14.3352 5.88146 14.471 5.80755C16.1233 4.90975 18.5081 3.61452 19.7198 4.67833C20.0069 4.93035 20.2118 5.25386 20.3202 5.60644C20.3774 5.50103 20.4274 5.39077 20.4691 5.27808C20.6228 4.86735 20.6776 4.41905 20.618 3.97076C20.5584 3.52367 20.3881 3.10565 20.1319 2.75186C19.8782 2.40171 19.5387 2.11455 19.1372 1.92311C18.4022 1.67351 17.6207 1.73894 16.7916 2.11818C15.9386 2.50711 15.0345 3.2268 14.0802 4.27485ZM15.2537 6.25827H19.6482C19.6542 6.11772 19.6363 5.97838 19.597 5.84632H19.5958C19.5291 5.62338 19.4028 5.41983 19.2229 5.26232C18.482 4.61288 16.6762 5.49496 15.2537 6.25827ZM5.27088 6.25827H9.66424C8.24184 5.49496 6.43708 4.61288 5.69601 5.26232C5.52327 5.41378 5.39819 5.60764 5.33029 5.81847L5.32314 5.84633C5.28383 5.97961 5.26612 6.11894 5.27088 6.25827ZM10.839 6.01836V4.27484C9.88476 3.22679 8.98056 2.50709 8.12763 2.11695C7.29849 1.7377 6.51582 1.67349 5.78201 1.92188C5.38055 2.11332 5.04103 2.40048 4.7873 2.75063C4.53117 3.10442 4.36083 3.52244 4.30124 3.96953C4.24168 4.41783 4.29528 4.86612 4.45015 5.27686C4.49303 5.38954 4.54307 5.49979 4.60025 5.60521L4.6074 5.58461C4.71819 5.23929 4.9195 4.92307 5.19946 4.67589C6.411 3.61329 8.79594 4.90731 10.4482 5.80632C10.5841 5.88144 10.7151 5.95173 10.839 6.01836ZM11.6014 6.25827H13.318V4.51232H11.6014V6.25827ZM14.8892 7.0337V10.7837H22.941C23.0232 10.7837 23.097 10.7498 23.1506 10.6953C23.2042 10.6407 23.2376 10.5656 23.2376 10.482V7.33437C23.2376 7.25198 23.2042 7.17686 23.1506 7.12233C23.097 7.06781 23.0232 7.03389 22.9422 7.03389L14.8892 7.0337ZM14.8892 11.5592V23.2233H21.3948C21.645 23.2233 21.8737 23.1191 22.0381 22.9507H22.0393C22.2037 22.7835 22.3061 22.552 22.3061 22.2964V11.5591L14.8892 11.5592ZM10.1098 23.2233V11.5592H2.693V22.2965C2.693 22.5509 2.79545 22.7823 2.96103 22.9508L2.95984 22.952C3.12543 23.1192 3.35417 23.2234 3.60433 23.2234L10.1098 23.2233ZM10.1098 10.7837V7.0337H2.05805C1.97586 7.0337 1.902 7.06763 1.84958 7.12094L1.84839 7.12215C1.79597 7.17667 1.76262 7.25058 1.76262 7.33418V10.4818C1.76262 10.5642 1.79598 10.6393 1.84958 10.6939C1.90319 10.7484 1.97705 10.7823 2.05806 10.7823L10.1098 10.7837ZM10.8722 7.0337V10.7837H14.1256L14.1268 7.0337H10.8722ZM10.8722 11.5592V23.2233H14.1256L14.1268 11.5592H10.8722Z" fill="black" stroke="black" stroke-width="0.5"/>
</svg>
