<svg width="29" height="40" viewBox="0 0 29 40" fill="none" xmlns="http://www.w3.org/2000/svg">
<path d="M0.159872 17.5075C0.294382 17.169 0.494947 16.8616 0.749544 16.6036C1.00414 16.3456 1.30753 16.1423 1.64151 16.006C2.08792 15.8018 2.56986 15.6894 3.05943 15.6752C3.549 15.661 4.03648 15.7454 4.49367 15.9234C5.88054 16.6009 7.03808 17.6799 7.81995 19.024C8.76652 20.4825 9.61781 22.0023 10.3684 23.5735V8.1081C10.3935 7.41906 10.6833 6.76723 11.176 6.29174C11.6687 5.81625 12.3253 5.55475 13.0057 5.56306C13.6324 5.5621 14.2409 5.77647 14.7318 6.17116V2.72522C14.7318 2.00245 15.0151 1.30928 15.5194 0.798199C16.0238 0.287121 16.7078 0 17.421 0C18.1342 0 18.8182 0.287121 19.3225 0.798199C19.8268 1.30928 20.1102 2.00245 20.1102 2.72522V4.77477C20.6061 4.34253 21.2415 4.11008 21.8955 4.12162C22.6087 4.12162 23.2928 4.40874 23.7971 4.91982C24.3014 5.43089 24.5847 6.12407 24.5847 6.84684V9.24173C25.0652 8.82312 25.6772 8.59157 26.3108 8.58858C27.024 8.58858 27.708 8.8757 28.2124 9.38678C28.7167 9.89786 29 10.591 29 11.3138V27.2672V29.0015C28.999 30.4468 28.7172 31.8778 28.1705 33.2127C27.6238 34.5476 26.823 35.7604 25.8138 36.7817C24.8046 37.803 23.6069 38.6129 22.2888 39.1651C20.9708 39.7172 19.5584 40.0009 18.1322 40H16.2357C14.2238 40.0056 12.2505 39.4413 10.5383 38.3708C8.82613 37.3002 7.44326 35.7661 6.54574 33.9414C5.25524 31.6445 4.16459 29.238 3.28613 26.7492C2.6122 24.8777 1.82545 23.05 0.930326 21.2763C0.411753 20.3378 -0.329069 18.8964 0.159872 17.5075ZM19.1841 20.4429L19.1026 20.5405C18.9206 20.789 18.8267 21.0925 18.8361 21.4018C18.8456 21.7111 18.9577 22.0081 19.1545 22.2447C19.2207 22.3229 19.2952 22.3934 19.3767 22.4549L20.1176 22.9955L21.8955 24.2717L23.5994 22.9955L24.3402 22.4549C24.4218 22.3935 24.4964 22.323 24.5625 22.2447C24.7527 22.0093 24.8608 21.7169 24.8702 21.4128C24.8796 21.1087 24.7896 20.81 24.6143 20.563L24.5329 20.4729C24.4167 20.3338 24.2743 20.2197 24.114 20.1371C23.9537 20.0546 23.7788 20.0054 23.5994 19.9925H23.5402C23.2552 19.9935 22.9779 20.0854 22.7475 20.2552L22.1548 20.6907C22.0728 20.7505 21.9744 20.7827 21.8733 20.7827C21.7723 20.7827 21.6738 20.7505 21.5918 20.6907L20.9991 20.2552C20.7266 20.0553 20.391 19.9639 20.0563 19.9985C19.7216 20.0332 19.4112 20.1913 19.1841 20.4429ZM23.6291 6.84684C23.6291 6.38291 23.4472 5.93798 23.1235 5.60994C22.7998 5.28189 22.3607 5.09759 21.9029 5.09759C21.4452 5.09759 21.0061 5.28189 20.6824 5.60994C20.3587 5.93798 20.1768 6.38291 20.1768 6.84684V19.0015C20.6829 18.9851 21.1802 19.1382 21.5918 19.4369L21.9029 19.6621L22.2141 19.4369C22.6255 19.1376 23.1229 18.9846 23.6291 19.0015V6.84684ZM1.78227 20.8333C2.69296 22.6418 3.49451 24.5045 4.18253 26.4114C5.2731 29.628 6.79091 32.679 8.69412 35.4804C9.61831 36.5929 10.7718 37.4867 12.0734 38.0989C13.3751 38.7111 14.7933 39.0269 16.2283 39.024H18.1322C20.7539 39.022 23.2675 37.9652 25.1206 36.0858C26.9738 34.2064 28.0147 31.6583 28.0147 29.0015V27.2672V11.3138C28.0147 11.0841 27.9701 10.8566 27.8833 10.6444C27.7966 10.4322 27.6694 10.2393 27.5091 10.0769C27.3489 9.91446 27.1586 9.78562 26.9492 9.69771C26.7397 9.6098 26.5153 9.56456 26.2886 9.56456C26.0619 9.56456 25.8375 9.6098 25.628 9.69771C25.4186 9.78562 25.2283 9.91446 25.0681 10.0769C24.9078 10.2393 24.7806 10.4322 24.6939 10.6444C24.6071 10.8566 24.5625 11.0841 24.5625 11.3138V19.2417C24.9064 19.4152 25.2019 19.6733 25.4218 19.9925C25.7827 20.4985 25.9307 21.1288 25.8335 21.7453C25.7363 22.3617 25.4017 22.9139 24.9033 23.2808L24.5625 23.5285V25.9835C24.5625 26.1129 24.5118 26.237 24.4215 26.3285C24.3311 26.42 24.2087 26.4714 24.081 26.4714C23.9532 26.4714 23.8308 26.42 23.7405 26.3285C23.6502 26.237 23.5994 26.1129 23.5994 25.9835V24.2117L22.1548 25.2477C22.0728 25.3076 21.9744 25.3398 21.8733 25.3398C21.7723 25.3398 21.6738 25.3076 21.5918 25.2477L20.1472 24.1892V25.9309C20.1472 26.0603 20.0965 26.1844 20.0062 26.276C19.9159 26.3675 19.7934 26.4189 19.6657 26.4189C19.538 26.4189 19.4155 26.3675 19.3252 26.276C19.2349 26.1844 19.1841 26.0603 19.1841 25.9309V23.506L18.8434 23.2582C18.5147 23.0231 18.2526 22.7048 18.083 22.3351C17.9134 21.9654 17.8423 21.5571 17.8768 21.1509C17.9112 20.7447 18.0501 20.3547 18.2794 20.0198C18.5088 19.6848 18.8207 19.4166 19.1841 19.2417V2.72522C19.1841 2.26129 19.0023 1.81637 18.6786 1.48832C18.3549 1.16027 17.9158 0.975975 17.458 0.975975C17.0002 0.975975 16.5612 1.16027 16.2375 1.48832C15.9138 1.81637 15.7319 2.26129 15.7319 2.72522V25.7132C15.7319 25.8426 15.6812 25.9667 15.5909 26.0582C15.5006 26.1498 15.3781 26.2012 15.2504 26.2012C15.1227 26.2012 15.0002 26.1498 14.9099 26.0582C14.8196 25.9667 14.7688 25.8426 14.7688 25.7132V8.1081C14.7289 7.67214 14.5298 7.26698 14.2105 6.97203C13.8912 6.67708 13.4748 6.51358 13.0427 6.51358C12.6107 6.51358 12.1942 6.67708 11.8749 6.97203C11.5556 7.26698 11.3565 7.67214 11.3166 8.1081V25.7132C11.3186 25.7382 11.3186 25.7633 11.3166 25.7883C11.3198 25.8207 11.3198 25.8534 11.3166 25.8859C11.3027 25.9178 11.2853 25.948 11.2648 25.976C11.236 26.0389 11.1861 26.0894 11.124 26.1186H11.0722H10.9758H10.8869H10.8055H10.7166C10.6821 26.1027 10.6498 26.0825 10.6203 26.0585L10.561 26.0135C10.5324 25.9842 10.5075 25.9514 10.4869 25.9159L10.4499 25.8633C9.48182 23.6686 8.35261 21.5505 7.07173 19.527C6.33091 18.4459 5.43451 17.2748 4.16771 16.7567C3.48537 16.4987 2.7307 16.5203 2.06378 16.8168C1.85044 16.9073 1.65721 17.0403 1.49559 17.208C1.33397 17.3757 1.20724 17.5745 1.12294 17.7928C0.745121 18.7387 1.21924 19.7672 1.78227 20.8333Z" fill="black"/>
</svg>
