<svg viewBox="0 0 49 49" fill="none" xmlns="http://www.w3.org/2000/svg"><path d="M21.3711 31.6668L26.3115 26.7114H36.7596L41.7 31.6668L31.5306 40.7114L21.3711 31.6668Z" stroke="currentColor" stroke-miterlimit="10"></path><path d="M29.6836 34.6301L26.3887 31.6976L28.3073 29.7737" stroke="currentColor" stroke-miterlimit="10" stroke-linecap="round"></path><path d="M31.5312 40.5869L36.0564 31.7108L32.5867 26.7266" stroke="currentColor" stroke-miterlimit="10"></path><path d="M19.8633 11.6667H29.2485" stroke="currentColor" stroke-miterlimit="10" stroke-linecap="round"></path><path d="M27.3716 18.563V11.6667" stroke="currentColor" stroke-miterlimit="10"></path><path d="M21.7402 11.6667V18.563" stroke="currentColor" stroke-miterlimit="10"></path><path d="M21.74 18.563L14.1189 33.805C13.3084 35.4261 14.4872 37.3334 16.2997 37.3334H23.7698M27.3711 18.563L30.1811 24.3413" stroke="currentColor" stroke-miterlimit="10" stroke-linecap="round"></path><path d="M21.7861 28.4482C22.0623 28.4482 22.2861 28.2244 22.2861 27.9482C22.2861 27.6721 22.0623 27.4482 21.7861 27.4482L21.7861 28.4482ZM19.8882 27.9483L19.8882 28.4483H19.8882L19.8882 27.9483ZM16.8042 28.4483L19.8882 28.4483L19.8882 27.4483L16.8042 27.4483L16.8042 28.4483ZM19.8882 28.4483L21.7861 28.4482L21.7861 27.4482L19.8882 27.4483L19.8882 28.4483Z" fill="currentColor"></path></svg>