<svg width="30" height="21" viewBox="0 0 30 21" fill="none" xmlns="http://www.w3.org/2000/svg">
<path d="M7.59097 13.503L7.71585 13.3781L7.85522 13.4866C10.7669 15.7526 14.979 15.5473 17.6553 12.871C20.554 9.97231 20.554 5.27266 17.6553 2.374C14.7567 -0.524665 10.057 -0.524665 7.15837 2.374C4.482 5.05037 4.2767 9.26241 6.54274 12.1741L6.65121 12.3135L6.52633 12.4384L0.422649 18.5421C0.127052 18.8377 0.12508 19.3125 0.420982 19.6084C0.714008 19.9014 1.19608 19.8979 1.48728 19.6067L7.59097 13.503ZM29.8 4.3215C29.8 3.90604 29.4582 3.56869 29.05 3.56869H23.3275C22.9134 3.56869 22.5775 3.90201 22.5775 4.3215C22.5775 4.73696 22.9193 5.07432 23.3275 5.07432H29.05C29.4642 5.07432 29.8 4.741 29.8 4.3215ZM29.8 11.944C29.8 11.5285 29.4582 11.1912 29.05 11.1912H23.3275C22.9134 11.1912 22.5775 11.5245 22.5775 11.944C22.5775 12.3594 22.9193 12.6968 23.3275 12.6968H29.05C29.4642 12.6968 29.8 12.3635 29.8 11.944ZM29.8 19.5665C29.8 19.1494 29.4703 18.8137 29.0484 18.8137H10.9426C10.5272 18.8137 10.191 19.1473 10.191 19.5665C10.191 19.9836 10.5207 20.3193 10.9426 20.3193H29.0484C29.4638 20.3193 29.8 19.9856 29.8 19.5665ZM8.223 11.8063C5.91232 9.49566 5.91232 5.74931 8.223 3.43863C10.5337 1.12795 14.28 1.12795 16.5907 3.43863C18.9014 5.74931 18.9014 9.49566 16.5907 11.8063C14.28 14.117 10.5337 14.117 8.223 11.8063Z" fill="#2E2E2E" stroke="white" stroke-width="0.4"/>
</svg>
