<svg width="50" height="35" viewBox="0 0 50 35" fill="none" xmlns="http://www.w3.org/2000/svg">
<path d="M21.7694 14.0147C19.0806 14.0147 16.6542 15.6651 15.6248 18.1969C14.5954 20.7286 15.164 23.6424 17.0684 25.5801C18.9703 27.5176 21.8306 28.0968 24.3161 27.0482C26.8014 25.9996 28.4215 23.5302 28.4215 20.7887C28.4166 17.0485 25.4412 14.0173 21.7694 14.0147ZM21.7694 26.3292C19.5709 26.3292 17.588 24.981 16.7449 22.9111C15.9042 20.8387 16.3699 18.4568 17.9238 16.8713C19.4802 15.2883 21.8184 14.8139 23.8527 15.6704C25.8846 16.5293 27.2081 18.5492 27.2081 20.7888C27.2057 23.8474 24.7719 26.3268 21.7694 26.3292ZM24.1321 22.2245C24.0709 23.2207 23.3429 24.0422 22.3748 24.2045V24.6364C22.365 24.971 22.0954 25.2357 21.7694 25.2357C21.4409 25.2357 21.1738 24.971 21.1615 24.6364V24.2045C20.5806 24.0821 20.0635 23.7401 19.7203 23.2457C19.5488 22.9661 19.6272 22.5966 19.8968 22.4118C20.1664 22.2245 20.5292 22.2894 20.7228 22.5566C20.9752 22.8762 21.3625 23.0559 21.7645 23.036C22.387 23.036 22.914 22.6614 22.914 22.2195C22.914 21.7776 22.387 21.4031 21.7645 21.4031V21.4056C20.5635 21.4905 19.5145 20.5767 19.4091 19.3533C19.4704 18.357 20.1983 17.5356 21.1665 17.3733V16.9413C21.1763 16.6067 21.4459 16.3421 21.7718 16.3421C22.1003 16.3421 22.3674 16.6067 22.3797 16.9413V17.3733C22.963 17.4956 23.4777 17.8377 23.8209 18.332C23.9925 18.6142 23.914 18.9812 23.6444 19.1685C23.3748 19.3532 23.0121 19.2883 22.8184 19.0212C22.566 18.7016 22.1787 18.5218 21.7743 18.5418C21.1517 18.5418 20.6248 18.9163 20.6248 19.3582C20.6248 19.8001 21.1518 20.1746 21.7743 20.1746C22.9777 20.0872 24.0267 21.0011 24.1321 22.2245ZM39.4777 13.4357C38.1542 13.4357 37.0806 12.3397 37.0782 10.9914C37.0782 10.6493 36.8086 10.3722 36.4728 10.3722H7.06857C6.73278 10.3722 6.46318 10.6493 6.46318 10.9914C6.46073 12.3397 5.38723 13.4357 4.06368 13.4357C3.72789 13.4357 3.45584 13.7129 3.45584 14.0524V27.5277C3.45584 27.8672 3.72789 28.1444 4.06368 28.1444C5.38723 28.1469 6.46073 29.2405 6.46318 30.5887C6.46318 30.9308 6.73279 31.208 7.06857 31.208H36.4728C36.8086 31.208 37.0782 30.9308 37.0782 30.5887C37.0807 29.2405 38.1542 28.1469 39.4777 28.1444C39.8135 28.1444 40.0855 27.8672 40.0855 27.5277V14.0524C40.0855 13.7129 39.8135 13.4357 39.4777 13.4357ZM38.8723 26.9608C37.36 27.2255 36.1762 28.4315 35.9165 29.9719H7.62468C7.36488 28.4314 6.18104 27.2254 4.67127 26.9608V14.6189C6.18104 14.3542 7.36491 13.1482 7.62468 11.6077H35.9165C36.1763 13.1483 37.3601 14.3542 38.8723 14.6189V26.9608ZM8.86509 18.7985C8.07588 18.7985 7.36266 19.2853 7.06117 20.0294C6.75724 20.7735 6.92636 21.6274 7.48518 22.1966C8.04401 22.7659 8.88471 22.9382 9.61262 22.6286C10.343 22.3215 10.821 21.5949 10.8185 20.7884C10.8185 19.6898 9.94355 18.801 8.86509 18.7985ZM8.86509 21.5475C8.56607 21.5475 8.29401 21.3652 8.17878 21.0831C8.06603 20.8009 8.12731 20.4738 8.34054 20.2591C8.55133 20.0419 8.87241 19.9769 9.14939 20.0943C9.42636 20.2117 9.60773 20.4863 9.60773 20.7934C9.60528 21.2079 9.27439 21.545 8.86508 21.545L8.86509 21.5475ZM34.6765 18.7985C33.8849 18.7985 33.1741 19.2853 32.8702 20.0294C32.5687 20.7735 32.7354 21.6274 33.2942 22.1966C33.853 22.7659 34.6937 22.9382 35.4241 22.6286C36.1545 22.3215 36.63 21.5949 36.63 20.7884C36.6275 19.6898 35.755 18.801 34.6765 18.7985ZM34.6765 21.5475C34.3751 21.55 34.1055 21.3652 33.9902 21.0831C33.875 20.8009 33.9363 20.4763 34.1471 20.2591C34.3603 20.0444 34.679 19.9769 34.9559 20.0943C35.2329 20.2092 35.4143 20.4838 35.4167 20.7884C35.4143 21.2054 35.0858 21.5424 34.6765 21.5449L34.6765 21.5475ZM49.3922 0H7.06619C6.7304 0 6.4608 0.277143 6.4608 0.619208V3.2908H3.83579C3.50246 3.2908 3.2304 3.56794 3.2304 3.9075V6.57909H0.607843C0.272057 6.57909 0.00245333 6.85624 0 7.1983V34.3808C0.00245082 34.7229 0.272057 35 0.607843 35H42.9338C43.2696 35 43.5392 34.7229 43.5392 34.3808V31.7092H46.1642C46.4975 31.7092 46.7696 31.4321 46.7696 31.0925V28.4209H49.3922C49.7279 28.4209 49.9975 28.1438 50 27.8017V0.619208C49.9976 0.277143 49.7279 0 49.3922 0ZM42.3283 33.7641H1.21332V7.81208L42.3283 7.81458V33.7641ZM45.5562 30.4759H43.5391V7.19815C43.5391 6.85608 43.2695 6.57894 42.9337 6.57894H4.44335V4.5241H45.5558L45.5562 30.4759ZM48.7842 27.1851H46.7719V3.90738C46.7719 3.56782 46.4999 3.29068 46.1665 3.29068H7.67115V1.23583H48.7861L48.7842 27.1851Z" fill="black"/>
</svg>
