<svg width="38" height="19" viewBox="0 0 38 19" fill="none" xmlns="http://www.w3.org/2000/svg">
<path d="M34.5604 14.6113H26.9485C26.6367 14.6113 26.3883 14.3665 26.3883 14.0591C26.3883 13.7518 26.6367 13.507 26.9485 13.507H34.5545C35.5132 13.507 36.2871 12.7386 36.2871 11.7994V7.20594C36.2871 6.26103 35.5074 5.4983 34.5545 5.4983H26.879C26.5672 5.4983 26.3188 5.25354 26.3188 4.94617C26.3188 4.63881 26.5672 4.39404 26.879 4.39404H34.5545C36.1311 4.39404 37.4075 5.65772 37.4075 7.20598V11.7994C37.4133 13.3477 36.1313 14.6113 34.5604 14.6113Z" fill="black"/>
<path d="M10.9163 14.6113H3.30441C1.73354 14.6113 0.451416 13.3477 0.451416 11.7994V7.20598C0.451416 5.65203 1.73354 4.39404 3.30441 4.39404H10.9799C11.2917 4.39404 11.5401 4.63881 11.5401 4.94617C11.5401 5.25354 11.2917 5.4983 10.9799 5.4983H3.30441C2.3457 5.4983 1.57184 6.26675 1.57184 7.20594V11.7994C1.57184 12.7443 2.3515 13.507 3.30441 13.507H10.9104C11.2222 13.507 11.4706 13.7518 11.4706 14.0591C11.4706 14.3665 11.2224 14.6113 10.9163 14.6113Z" fill="black"/>
<path d="M13.3891 19C13.2852 19 13.1754 18.9715 13.083 18.9089C12.8231 18.7438 12.7538 18.4023 12.9213 18.1461L15.8147 13.7972C15.9822 13.541 16.3345 13.4727 16.5886 13.6378C16.8485 13.8029 16.9178 14.1444 16.7503 14.4006L13.8569 18.7495C13.753 18.9089 13.5739 19 13.3891 19Z" fill="black"/>
<path d="M16.3624 5.32163C16.1833 5.32163 16.0043 5.23624 15.8946 5.07686L13.0589 0.859036C12.8857 0.602892 12.9607 0.261371 13.2149 0.0962716C13.4747 -0.0744925 13.8213 -0.00049337 13.9888 0.249961L16.8244 4.46779C16.9977 4.72393 16.9226 5.06545 16.6685 5.23055C16.5761 5.29317 16.4721 5.32163 16.3624 5.32163Z" fill="black"/>
<path d="M13.6371 10.0521H8.3412C8.02933 10.0521 7.78101 9.80737 7.78101 9.5C7.78101 9.19264 8.02934 8.94788 8.3412 8.94788H13.6371C13.9489 8.94788 14.1973 9.19264 14.1973 9.5C14.1973 9.80737 13.9489 10.0521 13.6371 10.0521Z" fill="black"/>
<path d="M24.4774 19H13.3948C13.1927 19 13.0021 18.8918 12.9039 18.7154L7.85644 9.76753C7.76404 9.59677 7.76404 9.39187 7.86221 9.22677L13.0428 0.278913C13.1409 0.108149 13.3257 0 13.5279 0H24.3392C24.5413 0 24.7261 0.108153 24.8243 0.278913L30.0048 9.22677C30.103 9.39184 30.103 9.60243 30.0106 9.76753L24.9631 18.7154C24.865 18.8919 24.6801 19 24.478 19H24.4774ZM13.7238 17.8957H24.1481L28.8781 9.50562L24.0154 1.10421H13.8509L8.98824 9.50562L13.7238 17.8957Z" fill="black"/>
<path d="M21.5773 14.6455H16.2814C16.0793 14.6455 15.8945 14.5373 15.7963 14.3666L13.1513 9.77316C13.0531 9.6024 13.0531 9.3975 13.1513 9.22672L15.8772 4.49669C15.9754 4.32592 16.1602 4.21777 16.3623 4.21777H21.4967C21.6988 4.21777 21.8836 4.32593 21.9818 4.49669L24.7077 9.22672C24.8059 9.39748 24.8059 9.60238 24.7077 9.77316L22.0627 14.3666C21.9645 14.543 21.7794 14.6455 21.5773 14.6455ZM16.6104 13.5412H21.2535L23.581 9.49973L21.1727 5.32161H16.6911L14.2828 9.49973L16.6104 13.5412Z" fill="black"/>
<path d="M24.4771 19C24.2923 19 24.1132 18.9146 24.0093 18.7495L21.1159 14.4006C20.9484 14.1444 21.0177 13.8029 21.2776 13.6378C21.5375 13.4727 21.884 13.541 22.0515 13.7972L24.9449 18.1462C25.1124 18.4023 25.0431 18.7438 24.7832 18.9089C24.685 18.9715 24.581 19 24.4771 19Z" fill="black"/>
<path d="M21.5031 5.32175C21.3991 5.32175 21.2894 5.29329 21.1912 5.23068C20.9313 5.05992 20.862 4.71841 21.0353 4.46792L23.8709 0.250088C24.0442 -0.00605667 24.3907 -0.0743619 24.6448 0.0963986C24.9047 0.267163 24.974 0.608673 24.8008 0.859163L21.9651 5.07699C21.8612 5.23637 21.6821 5.32175 21.5031 5.32175Z" fill="black"/>
<path d="M29.5182 10.0521H24.2223C23.9104 10.0521 23.6621 9.80737 23.6621 9.5C23.6621 9.19264 23.9104 8.94788 24.2223 8.94788H29.5182C29.83 8.94788 30.0784 9.19264 30.0784 9.5C30.0784 9.80737 29.83 10.0521 29.5182 10.0521Z" fill="black"/>
</svg>
