<svg width="21" height="25" viewBox="0 0 21 25" fill="none" xmlns="http://www.w3.org/2000/svg">
<path d="M15.8962 6.71475C15.4162 6.43466 14.6699 5.90489 14.1517 6.37477C13.7358 6.24284 13.3321 6.08351 12.9131 5.95968C13.4911 5.31932 14.096 4.69921 14.6782 4.06189C15.8405 2.79027 15.9447 2.68066 14.96 1.42331C14.0413 0.249121 14.1579 0.00757999 12.5033 0.00757999H9.25798C7.81802 0.00555039 7.93466 -0.156827 6.88281 1.13204C5.73289 2.54068 5.57909 2.61373 6.85906 3.98574C7.41338 4.58046 8.21439 5.34667 8.70161 5.95966C8.31039 6.03374 7.75815 6.30166 7.45572 6.32603C6.73315 6.38388 7.2214 5.93835 6.09937 6.5148C2.43076 8.40142 0.633578 12.1565 0.867969 15.8189C1.22307 21.352 5.99208 25.115 11.0921 24.9973C16.1304 24.8816 20.5381 20.9561 20.787 15.5947C20.9439 12.2121 19.3677 8.74045 15.8962 6.71475ZM12.0635 5.776H11.8251C12.0749 5.16504 13.1051 3.60723 13.4921 3.05325H14.6049C13.8854 3.90777 12.2493 5.62693 12.0635 5.776ZM10.9735 5.72729C10.8816 5.73033 10.7887 5.72729 10.6958 5.72729C10.2365 4.83725 9.53146 3.96142 9.02771 3.05416H12.5972C11.0664 5.57 11.1923 5.3234 10.9735 5.72729ZM13.6202 0.913883C13.9144 1.18179 14.5069 1.9602 14.7278 2.32556H13.5686C13.3384 1.78566 13.0298 1.27111 12.7707 0.744413C13.0835 0.736294 13.3766 0.690615 13.6202 0.913883ZM9.69556 0.743386C9.94433 0.731208 10.2003 0.742372 10.4501 0.742372L11.9747 0.743386C12.1616 1.30155 12.5383 1.78565 12.7716 2.32453H8.91934C8.9885 2.12461 9.10205 1.92672 9.19599 1.73693L9.69556 0.743386ZM8.2752 0.743386C8.493 0.721059 8.70152 0.727149 8.91932 0.743386C8.68706 1.08539 8.25559 1.93688 8.12656 2.32453H6.90336C7.03446 2.04545 7.94798 0.864144 8.2752 0.743386ZM6.98388 3.05321C7.37096 3.07858 7.77458 3.05422 8.16268 3.05321C8.41661 3.55658 9.74819 5.4828 9.84214 5.77596C9.75027 5.77495 9.65943 5.77495 9.56755 5.77596C8.77995 5.0483 7.68063 3.89035 6.98388 3.05321ZM13.3146 6.85597C13.9783 7.09345 13.9989 7.09852 13.4353 7.57958C11.7322 6.95646 9.84732 7.01939 8.12546 7.57958C8.00365 7.40908 7.8323 7.27714 7.72496 7.0965C9.27641 6.3049 11.4215 6.18008 13.3146 6.85597ZM10.4987 7.85154C14.51 7.58259 18.4984 11.0199 18.2106 15.5961C17.9908 19.1003 15.3422 22.1946 11.1067 22.4536C7.14507 22.4678 3.76556 19.7774 3.42494 15.786C3.10495 12.0461 5.8032 8.22514 10.499 7.8518L10.4987 7.85154ZM20.0725 15.5961C19.8413 20.4734 15.9095 24.0509 11.2294 24.2517C6.18795 24.4689 1.91341 20.7636 1.56672 15.792C1.31175 12.1487 3.31326 8.58835 6.90434 6.93131C7.0664 6.94552 6.82899 7.28753 7.41736 7.8518C7.07983 8.04057 6.73815 8.21208 6.41299 8.42418C3.64865 10.2235 2.50074 13.0734 2.72588 15.793C3.09644 20.2726 6.91666 23.3354 11.1272 23.1619C15.2221 22.9934 18.7287 19.821 18.9433 15.5961C19.1054 12.4083 17.3454 9.22672 14.2312 7.91262C14.5171 7.63557 14.6151 7.31385 14.6719 6.93126C14.7349 6.96171 15.2293 7.0774 16.2719 7.80202C18.9556 9.68054 20.2108 12.6681 20.0725 15.5961Z" fill="black"/>
</svg>
