<svg width="25" height="26" viewBox="0 0 25 26" fill="none" xmlns="http://www.w3.org/2000/svg">
<path d="M12.2895 24.9823C9.91 24.9823 7.53453 24.169 5.5174 22.6551C3.27072 20.9681 1.74081 18.6046 1.20535 16.0038C0.665818 13.3827 1.1973 10.8381 2.70715 8.82891C5.29608 5.38242 10.1719 4.37179 14.5564 6.36885C14.7577 6.46146 14.8463 6.69899 14.7577 6.90032C14.6691 7.10165 14.4276 7.19423 14.2262 7.10163C10.1837 5.26163 5.71474 6.17156 3.35515 9.31205C1.98622 11.1319 1.50708 13.4509 1.9983 15.8386C2.49354 18.2463 3.91883 20.4367 6.00835 22.007C8.09786 23.5773 10.5982 24.3342 13.0503 24.1409C15.4821 23.9477 17.5757 22.8404 18.9406 21.0245C21.143 18.0893 20.9739 13.8939 18.5179 10.5724C18.385 10.3953 18.4212 10.1416 18.6024 10.0087C18.7796 9.87588 19.0332 9.91212 19.1661 10.0933C21.8354 13.7008 22.0047 18.2868 19.5848 21.5078C18.075 23.5129 15.7799 24.733 13.1106 24.9463C12.8408 24.9665 12.567 24.9785 12.2932 24.9785L12.2895 24.9823Z" fill="black" stroke="black" stroke-width="0.5"/>
<path d="M3.02451 9.47703C2.93996 9.47703 2.85541 9.44884 2.78293 9.3965C2.60578 9.26363 2.56954 9.00998 2.70241 8.83282L5.1222 5.61592C7.35679 2.64047 11.3669 1.4407 15.3328 2.55595C15.5462 2.61634 15.671 2.8378 15.6106 3.05119C15.5502 3.26457 15.3288 3.38939 15.1154 3.32899C11.4677 2.30631 7.79956 3.39341 5.76645 6.09907L3.34667 9.31597C3.26614 9.42066 3.1453 9.47703 3.02451 9.47703Z" fill="black" stroke="black" stroke-width="0.5"/>
<path d="M19.2545 21.6726C19.1699 21.6726 19.0854 21.6444 19.0129 21.592C18.8358 21.4592 18.7995 21.2055 18.9324 21.0284L21.3522 17.8115C23.16 15.4078 23.4015 12.1747 22.0044 9.16315C21.9118 8.96184 22.0004 8.72025 22.2017 8.62767C22.403 8.53508 22.6446 8.62364 22.7372 8.82495C24.2632 12.1104 23.9854 15.6494 21.9964 18.2948L19.5766 21.5117C19.496 21.6163 19.3753 21.6726 19.2545 21.6726Z" fill="black" stroke="black" stroke-width="0.5"/>
<path d="M13.0053 22.0511C11.0405 22.0511 9.07979 21.3828 7.41285 20.1306C3.57184 17.2438 2.529 12.1144 5.09371 8.70397C5.22658 8.52681 5.48023 8.49058 5.65739 8.62345C5.83455 8.75631 5.87078 9.00997 5.73792 9.18712C3.4389 12.2471 4.40926 16.8653 7.896 19.4864C9.5951 20.7627 11.6283 21.3788 13.6134 21.2217C15.5863 21.0647 17.2813 20.1709 18.3885 18.6973C18.5214 18.5201 18.7751 18.4839 18.9522 18.6167C19.1294 18.7496 19.1656 19.0033 19.0328 19.1804C17.7846 20.8392 15.8841 21.8497 13.6779 22.027C13.4524 22.0431 13.2269 22.0552 13.0014 22.0552L13.0053 22.0511Z" fill="black" stroke="black" stroke-width="0.5"/>
<path d="M21.103 9.2232C19.9474 9.2232 18.6107 8.75615 17.3908 7.84218C16.3319 7.04497 15.5307 6.02632 15.1401 4.96748C14.7254 3.84817 14.81 2.81744 15.3777 2.06058C16.5292 0.53059 19.2107 0.671516 21.4896 2.38268C22.5486 3.17989 23.3498 4.19854 23.7403 5.25738C24.155 6.37669 24.0705 7.40742 23.5028 8.16428C22.9673 8.87291 22.1055 9.2232 21.103 9.2232ZM17.7691 1.82284C17.0202 1.82284 16.3881 2.06039 16.0257 2.54355C15.6271 3.07502 15.5828 3.83598 15.8969 4.68553C16.2351 5.5995 16.9357 6.4893 17.8738 7.19391C19.7259 8.58699 22.0088 8.80442 22.8584 7.67706C23.257 7.14559 23.3013 6.38463 22.9872 5.53508C22.649 4.62111 21.9485 3.73131 21.0103 3.0267C19.9554 2.23353 18.7637 1.82284 17.7733 1.82284H17.7691Z" fill="black" stroke="black" stroke-width="0.5"/>
<path d="M19.8631 10.8742C18.7076 10.8742 17.3708 10.4071 16.151 9.49315C13.8761 7.78198 12.9902 5.24552 14.1418 3.7154L15.3819 2.06464C15.5148 1.88749 15.7685 1.85125 15.9456 1.98412C16.1228 2.11698 16.159 2.37064 16.0261 2.5478L14.786 4.19856C13.9365 5.32994 14.786 7.45978 16.6341 8.84894C18.4862 10.242 20.7691 10.4595 21.6187 9.3321L22.8588 7.68133C22.9917 7.50418 23.2453 7.46794 23.4225 7.60081C23.5996 7.73367 23.6359 7.98733 23.503 8.16449L22.2629 9.81525C21.7274 10.5239 20.8657 10.8742 19.8631 10.8742Z" fill="black" stroke="black" stroke-width="0.5"/>
<path d="M21.7749 5.81716C21.6259 5.81716 21.481 5.73261 21.4125 5.58767C21.3803 5.51922 20.6395 4.03755 18.6705 3.54232C18.4531 3.48998 18.3243 3.26853 18.3766 3.05514C18.429 2.83772 18.6504 2.70887 18.8638 2.76123C21.2192 3.34905 22.1008 5.16491 22.1371 5.24142C22.2338 5.44273 22.1452 5.68432 21.9479 5.77691C21.8915 5.80509 21.8353 5.81716 21.7749 5.81716Z" fill="black" stroke="black" stroke-width="0.5"/>
</svg>
