<svg width="30" height="22" viewBox="0 0 30 22" fill="none" xmlns="http://www.w3.org/2000/svg">
<path d="M27.7326 6.69458C27.8838 5.58276 26.5096 4.34963 25.5127 4.3263C25.2365 3.35217 23.7646 2.67084 22.8359 2.75834C22.2335 1.99419 20.815 1.47154 19.8749 1.83788C19.0304 0.906895 17.5618 0.86141 16.4957 1.4179C16.0297 0.976901 15.3193 0.990908 14.7249 1.00492C14.2691 1.02358 13.8133 1.08075 13.4677 1.4179C12.5482 0.807741 10.9012 0.93258 10.177 1.83788C9.2518 1.66638 7.7105 1.90321 7.18662 2.83653C6.19548 2.53787 4.8474 3.40467 4.39844 4.32633C3.27316 4.38583 2.14788 5.62831 2.11264 6.77627C1.51476 7.10058 1.26129 7.78191 1.07489 8.4154C0.860062 9.14571 1.12945 9.74186 1.60229 10.2657C-0.166321 15.5982 5.97952 18.2372 10.0896 18.9794C10.6056 19.0727 11.2308 19.1334 11.7241 19.2512C12.3106 20.4447 14.0667 21.0968 15.3352 20.9883C16.5809 20.9136 17.538 20.2078 18.3006 19.2512C22.6982 18.6562 30.2229 16.1562 28.4337 10.1666C29.576 9.22628 28.809 7.17065 27.7326 6.69458ZM25.6139 5.20129C26.2447 5.19312 27.6098 6.63859 26.4527 6.98625C25.9117 6.96175 25.2229 6.18011 25.1013 5.69479C25.1604 5.4043 25.3229 5.24444 25.6139 5.20129ZM23.036 3.59949C23.6089 3.50499 25.3786 4.36247 24.3954 5.10679C23.6759 5.18029 22.0369 4.02532 23.036 3.59949ZM20.3762 2.52853C20.707 2.51219 21.5265 2.75369 21.8186 2.92401C22.3392 3.22733 22.1062 3.73365 21.6129 3.84098C21.2685 3.84915 20.4103 3.70682 20.1148 3.52016C19.626 3.21099 19.9057 2.62535 20.3762 2.52853ZM16.9674 2.19253C17.1129 1.99537 17.2788 1.93587 17.5073 1.89154C17.8756 1.85771 18.7235 1.98021 19.0111 2.21586C19.4271 2.55767 18.9975 3.04067 18.586 3.06752C18.278 3.09202 17.9404 3.04535 17.6346 2.99752C17.0834 2.91119 16.8605 2.77935 16.9674 2.19253ZM13.8335 2.19253C14.0074 1.90904 14.27 1.8612 14.5803 1.83904C14.9588 1.79821 16.6467 1.83671 16.0534 2.61251C15.8761 2.84467 15.601 2.89133 15.3327 2.92168C14.7235 2.93101 13.788 3.07334 13.8335 2.19253ZM10.9521 2.21587C11.1817 1.94521 11.7819 1.92304 12.1115 1.89155C12.4355 1.84722 12.9254 1.86822 12.9901 2.28238C13.1118 3.05704 12.249 3.01036 11.7228 3.06752C11.2579 3.05469 10.4224 2.8412 10.9521 2.21587ZM9.4279 2.58686C10.2781 2.47486 10.6964 3.6345 8.58793 3.93432C8.1935 3.98099 7.95595 3.83633 7.84683 3.43616C8.01164 2.84117 8.91528 2.6557 9.4279 2.58686ZM5.28928 4.40098C5.54843 3.96933 6.24521 3.71968 6.701 3.60066C7.03744 3.57849 7.37844 3.9845 7.1943 4.31114C7.00676 4.64597 6.15655 5.00412 5.78485 5.10796C5.38702 5.13596 5.03921 4.8163 5.28928 4.40098ZM3.10465 6.19177C3.31948 5.84526 3.81392 5.29113 4.21856 5.20129C5.50184 5.15463 4.35723 7.0749 3.64684 6.98626C3.26266 6.83693 2.77276 6.72727 3.10465 6.19177ZM2.56814 7.55324C3.70137 7.46457 2.8955 9.46651 2.36809 9.63334C1.36558 9.43501 1.9748 7.70839 2.56814 7.55324ZM11.1885 18.3247C2.60917 16.9317 1.31111 12.6304 2.36824 10.7474C2.38756 10.7742 3.32417 13.58 8.41395 15.0406C9.3278 15.3031 10.2576 15.4711 11.1896 15.6496C10.9703 16.3088 10.9453 17.0309 11.0658 17.7122C11.0896 17.8557 11.243 18.2127 11.1885 18.3247ZM15.3338 20.1598C10.9123 20.3371 10.6327 14.2171 14.7245 13.7117C15.3985 13.6126 16.2533 13.8926 16.8034 14.2846C19.1676 15.9715 18.3118 19.6452 15.3338 20.1598ZM16.6784 13.2649C14.8427 12.4401 12.6399 12.9873 11.5897 14.8131C11.2192 14.7956 10.8509 14.7326 10.4849 14.6672C7.82858 14.1948 4.25938 12.9873 3.05589 10.2668C3.69354 9.60297 3.89019 8.73501 3.94248 7.82852C4.68811 7.62552 5.44967 6.70272 5.64404 5.97357C6.43173 5.86391 7.46494 5.3681 7.96962 4.72643C8.971 4.97376 10.0872 4.5421 10.7976 3.79662C11.6149 4.01595 12.8231 3.97861 13.4653 3.38363C13.471 3.38596 14.8327 4.31811 16.4933 3.38363C17.0968 3.99146 18.4074 4.03462 19.2076 3.79662C19.8418 4.58176 21.0933 4.83726 22.0208 4.60159C22.3879 5.3354 23.495 5.91874 24.3043 5.97238C24.6419 6.7727 25.2636 7.38752 25.9808 7.82732C25.8979 8.61014 26.3957 9.74994 26.9925 10.3076C25.5353 13.3046 21.357 14.4049 18.4018 14.8586C17.9972 14.1493 17.3991 13.6149 16.6784 13.2649ZM18.7573 18.3245C18.9835 17.2314 19.0529 16.7507 18.7573 15.6494L19.0256 15.6051C25.7705 14.4758 27.0084 11.7796 27.7323 10.7471C29.144 13.3032 25.7671 17.1965 18.7573 18.3245ZM27.7676 9.63295C27.1526 9.68078 26.3047 7.81534 27.2106 7.49568C28.0267 7.46185 28.5586 9.3483 27.7676 9.63295Z" fill="black" stroke="black" stroke-width="0.5"/>
</svg>
