<svg width="35" height="34" viewBox="0 0 35 34" fill="none" xmlns="http://www.w3.org/2000/svg">
<path d="M32.6033 14.522C32.222 12.2291 31.3046 10.0521 29.9242 8.1559C30.5778 7.17545 30.4632 5.8418 29.5903 4.98002C28.7173 4.11964 27.3628 4.00662 26.368 4.65084C24.4458 3.29035 22.2354 2.39041 19.9089 2.01037C19.6624 0.863194 18.6318 0 17.3947 0C16.1577 0 15.1228 0.864605 14.8805 2.01037C12.5542 2.38618 10.3454 3.29035 8.42149 4.65084C7.42672 4.00664 6.07359 4.11539 5.19923 4.98002C4.32629 5.84039 4.21591 7.17545 4.86524 8.1559C3.48489 10.0504 2.56751 12.2319 2.18621 14.522C1.02228 14.765 0.146484 15.7808 0.146484 17C0.146484 18.2192 1.02372 19.2392 2.18621 19.478C2.56751 21.7709 3.48489 23.9479 4.86524 25.8441C4.21163 26.8245 4.32627 28.1582 5.19923 29.02C6.07216 29.8804 7.42672 29.9934 8.42149 29.3492C10.3437 30.7097 12.5541 31.6096 14.8805 31.9896C15.1271 33.1368 16.1577 34 17.3947 34C18.6318 34 19.6667 33.1354 19.9089 31.9896C22.2353 31.6138 24.4441 30.7097 26.368 29.3492C27.3628 29.9934 28.7159 29.8804 29.5903 29.02C30.4632 28.1596 30.5736 26.8245 29.9242 25.8441C31.3046 23.9496 32.222 21.7681 32.6033 19.478C33.7672 19.235 34.643 18.2192 34.643 17C34.643 15.7808 33.7658 14.7608 32.6033 14.522ZM32.0629 18.085C31.8722 18.0596 31.6845 18.1062 31.5311 18.215C31.3662 18.3337 31.2559 18.5117 31.2344 18.7137C30.9262 21.155 29.95 23.4805 28.4091 25.4328C28.2887 25.5853 28.24 25.7831 28.2658 25.9795C28.2916 26.1745 28.402 26.3482 28.5553 26.4683C28.9854 26.8922 28.9854 27.5788 28.5553 28.0012C28.1253 28.425 27.4287 28.425 26.9915 27.9941C26.874 27.8387 26.6977 27.7342 26.5042 27.7087C26.3092 27.6833 26.1114 27.7342 25.9537 27.8529C23.9728 29.3716 21.6164 30.3337 19.1365 30.6374C18.9344 30.6628 18.751 30.7674 18.6334 30.9299C18.5159 31.0923 18.4686 31.2958 18.5087 31.4935C18.5087 31.4794 18.5044 31.4653 18.5015 31.4653C18.5015 32.0615 18.0056 32.5503 17.4007 32.5503C16.7958 32.5503 16.307 32.07 16.2998 31.454C16.3256 31.2689 16.2783 31.0811 16.168 30.9299C16.0476 30.7674 15.867 30.6629 15.6648 30.6374C13.1836 30.3337 10.8284 29.3716 8.84765 27.8529C8.68997 27.7342 8.49217 27.6833 8.29293 27.7116C8.09799 27.737 7.91882 27.8458 7.80129 28.0012C7.37126 28.4251 6.67464 28.4251 6.24605 28.0012C5.81602 27.5774 5.81602 26.8908 6.25751 26.4571C6.41519 26.3412 6.51839 26.1675 6.54419 25.9767C6.56999 25.7846 6.51839 25.5897 6.39799 25.4385C4.85709 23.486 3.88093 21.1636 3.57276 18.7194C3.54696 18.5202 3.44089 18.3394 3.27605 18.2207C3.11121 18.102 2.90481 18.0582 2.70412 18.0978C2.72276 18.0978 2.73709 18.0907 2.73279 18.0907C2.12791 18.0907 1.63194 17.6019 1.63194 17.0057C1.63194 16.4095 2.11929 15.9278 2.74424 15.9207C2.93201 15.9461 3.12264 15.8995 3.27602 15.7907C3.44086 15.6721 3.55124 15.4941 3.57274 15.292C3.88091 12.8508 4.85706 10.5252 6.39796 8.57295C6.51836 8.42037 6.5671 8.22258 6.5413 8.02621C6.51549 7.83125 6.40512 7.65749 6.25175 7.53738C5.82172 7.11354 5.82172 6.42695 6.25175 6.00452C6.68178 5.58068 7.3784 5.58068 7.81558 6.01158C7.93312 6.16699 8.10943 6.27153 8.30293 6.29696C8.49787 6.32239 8.69567 6.27153 8.85335 6.15286C10.8343 4.63414 13.1907 3.67203 15.6706 3.3683C15.8727 3.34287 16.0561 3.23832 16.1737 3.07586C16.2912 2.91339 16.3385 2.70996 16.2984 2.51216C16.2984 2.52629 16.3027 2.54042 16.3055 2.54042C16.3055 1.94424 16.8015 1.45541 17.4064 1.45541C18.0113 1.45541 18.5001 1.93574 18.5072 2.5517C18.4814 2.73678 18.5287 2.92465 18.6391 3.07583C18.7595 3.2383 18.9401 3.34284 19.1423 3.36827C21.6235 3.67202 23.9786 4.63411 25.9594 6.15283C26.1143 6.27151 26.3149 6.32236 26.5142 6.29411C26.7091 6.26868 26.8883 6.1599 27.0058 6.00449C27.4358 5.58066 28.1325 5.58066 28.561 6.00449C28.9911 6.42833 28.9911 7.11493 28.5496 7.54864C28.3919 7.66448 28.2887 7.83826 28.2629 8.02897C28.2371 8.22111 28.2887 8.41606 28.4091 8.56724C29.95 10.5197 30.9262 12.8422 31.2343 15.2863C31.2601 15.4855 31.3662 15.6664 31.531 15.785C31.6859 15.8938 31.8765 15.9404 32.0628 15.915H32.0743C32.6792 15.915 33.1751 16.4038 33.1751 17C33.1751 17.5962 32.6878 18.078 32.0629 18.085Z" fill="black"/>
<path d="M17.3961 5.60754C11.0218 5.60754 5.83716 10.7176 5.83716 17.0001C5.83716 23.2826 11.0218 28.3927 17.3961 28.3927C23.7704 28.3927 28.955 23.2826 28.955 17.0001C28.955 10.7176 23.7704 5.60754 17.3961 5.60754ZM17.3961 26.946C11.8331 26.946 7.30496 22.483 7.30496 17.0001C7.30496 11.5172 11.8331 7.05422 17.3961 7.05422C22.959 7.05422 27.4872 11.5172 27.4872 17.0001C27.4872 22.483 22.959 26.946 17.3961 26.946Z" fill="black"/>
</svg>
