<svg width="36" height="40" viewBox="0 0 36 40" fill="none" xmlns="http://www.w3.org/2000/svg">
<path d="M35.4319 0H11.8234V6.98656C8.36852 7.86948 5.45106 10.0576 3.57006 13.167C3.03263 14.0499 3.18618 15.1631 3.87716 15.8925C3.33973 17.2745 3.07102 18.7332 3.07102 20.2687V20.3839C1.30518 20.9597 0 22.6488 0 24.6065V29.0979C0 31.1708 1.42035 32.8983 3.33973 33.3973C4.18426 36.929 7.06334 39.0403 11.8618 39.6929C12.1305 39.8848 12.476 40 12.8215 40H15.3935C16.3532 40 17.1593 39.1939 17.1593 38.2342C17.1593 37.2745 16.3532 36.4683 15.3935 36.4683H12.8215C11.9002 36.4683 11.1708 37.1593 11.0557 38.0422C8.21497 37.5048 6.33397 36.3532 5.37428 34.5106H6.48752C7.60077 34.5106 8.48369 33.6276 8.48369 32.5144V21.2668C8.48369 20.1535 7.60077 19.2706 6.48752 19.2706H5.10557C4.91363 19.2706 4.76008 19.309 4.60653 19.3474C4.6833 18.3877 4.87524 17.4664 5.22073 16.5451C5.29751 16.5451 5.37428 16.5451 5.45106 16.5451C5.64299 16.5451 5.79655 16.5067 5.98848 16.4683C6.5643 16.3148 7.06334 15.9693 7.37044 15.4702C8.40691 13.7428 9.94242 12.4376 11.785 11.7083V16.6603H16.5451V22.572L22.4568 16.6603H29.7505C30.0576 17.5048 30.2495 18.3877 30.3263 19.309C30.2111 19.2706 30.0576 19.2706 29.9424 19.2706H28.5605C27.4472 19.2706 26.5643 20.1535 26.5643 21.2668V32.5144C26.5643 33.6276 27.4472 34.5106 28.5605 34.5106H29.9424C30.6718 34.5106 31.3244 34.1267 31.6699 33.5125C33.6276 33.0518 35.0864 31.286 35.0864 29.2131V24.6449C35.0864 22.6488 33.7428 20.9597 31.9386 20.3839V20.2303C31.9386 19.0019 31.7466 17.8119 31.4012 16.6603H35.4319V0ZM12.8599 37.9655H15.4319C15.547 37.9655 15.6622 38.0806 15.6622 38.1958C15.6622 38.3109 15.547 38.4261 15.4319 38.4261H12.8599C12.7447 38.4261 12.6296 38.3109 12.6296 38.1958C12.6296 38.0806 12.7447 37.9655 12.8599 37.9655ZM29.9424 32.975H28.5605C28.2917 32.975 28.0998 32.7831 28.0998 32.5144V21.2668C28.0998 20.9981 28.2917 20.8061 28.5605 20.8061H29.9424C30.1727 20.8061 30.3263 20.9597 30.4031 21.1516V30.9405H30.4415V32.476C30.4031 32.7447 30.2111 32.975 29.9424 32.975ZM33.5509 24.6449V29.1747C33.5509 30.3263 32.8983 31.286 31.9386 31.785V22.0345C32.8983 22.5336 33.5509 23.4933 33.5509 24.6449ZM1.5739 29.0979V24.5681C1.5739 23.4549 2.1881 22.4952 3.10941 22.0345V30.9789C3.10941 31.2476 3.10941 31.4779 3.14779 31.7083C2.1881 31.2092 1.5739 30.2111 1.5739 29.0979ZM5.18234 20.8061H6.5643C6.83301 20.8061 7.02495 20.9981 7.02495 21.2668V32.5144C7.02495 32.7831 6.83301 32.975 6.5643 32.975H5.18234C5.02879 32.975 4.91363 32.8983 4.79846 32.7831C4.76008 32.5912 4.72169 32.3992 4.6833 32.2073V21.2668C4.72169 20.9981 4.91363 20.8061 5.18234 20.8061ZM6.10365 14.7025C5.98848 14.856 5.83493 14.9712 5.68138 15.0096C5.48944 15.048 5.29751 15.0096 5.14395 14.9328C4.79847 14.7409 4.72169 14.2802 4.91363 13.9731C6.52591 11.3244 8.94434 9.44338 11.8234 8.59885V10.096C9.44338 10.8637 7.44722 12.5144 6.10365 14.7025ZM33.8964 15.1248H21.8426L18.119 18.8484V15.1248H13.3589V1.53551H33.8964V15.1248Z" fill="black"/>
</svg>
