<svg width="41" height="40" viewBox="0 0 41 40" fill="none" xmlns="http://www.w3.org/2000/svg">
<path d="M27.4039 20.2582C27.5299 20.269 33.0923 19.6498 33.2075 19.6516V19.6498C33.6035 19.6084 33.8898 19.2556 33.8483 18.8596L33.5477 15.9938C33.5027 15.5996 33.1499 15.3152 32.7557 15.353L27.0276 15.956C26.6316 15.9974 26.3454 16.352 26.3868 16.7481L26.6874 19.6139V19.6121C26.727 19.9775 27.0349 20.2546 27.4039 20.2582ZM32.1905 16.8614L32.3417 18.2943L28.0449 18.7462L27.8937 17.3133L32.1905 16.8614Z" fill="black"/>
<path d="M39.6022 24.1574H38.1621V21.3061C38.7417 20.7048 39.0243 19.8786 38.9361 19.0488L37.2044 2.57799H37.2062C37.0334 0.999301 35.6204 -0.143727 34.0399 0.0146582L6.82775 2.87499C5.24727 3.0424 4.1006 4.45908 4.26622 6.03957C4.26622 6.03957 4.59203 9.13391 4.95925 12.6386H3.60019C1.61288 12.6422 0.00179721 14.2515 0 16.2388V36.3998C0.00179998 38.3889 1.61288 39.9982 3.60019 40H34.562C36.5493 39.9982 38.1604 38.3889 38.1622 36.3998V31.3579H39.6023C39.7931 31.3579 39.9767 31.2805 40.1117 31.1455C40.2468 31.0105 40.3224 30.8287 40.3224 30.6379V24.8776C40.3224 24.685 40.2468 24.5032 40.1117 24.3681C39.9767 24.2331 39.793 24.1574 39.6022 24.1574ZM36.6752 11.3212C37.0802 15.2201 37.4762 19.0059 37.505 19.1948H37.5032C37.5644 19.9544 37.037 20.6385 36.2864 20.7735C36.2072 20.7915 9.63417 23.5672 9.02035 23.6411C8.25893 23.7005 7.57488 23.1749 7.43627 22.4242C7.42367 22.3918 7.01865 18.4874 6.60102 14.4824C11.0148 14.0233 32.472 11.7622 36.6752 11.3212ZM36.5258 9.89007C32.3082 10.3329 10.6782 12.6064 6.45332 13.0511C6.32012 11.7784 6.19231 10.5453 6.0789 9.46888C10.5018 9.00986 31.9625 6.74896 36.1514 6.3097C36.2648 7.38794 36.3926 8.62101 36.5258 9.89007ZM6.97912 4.30627C7.09793 4.31347 34.2489 1.4099 34.3424 1.4387C35.0552 1.4405 35.6601 1.96252 35.7663 2.66818C35.7717 2.68438 35.8653 3.55383 36.0039 4.8787C31.797 5.32153 10.1655 7.59323 5.9314 8.03968C5.8018 6.80481 5.71359 5.98219 5.69919 5.89759V5.89579C5.63438 5.10916 6.19789 4.41064 6.97912 4.30627ZM36.7221 36.4017C36.7203 37.5934 35.7536 38.5601 34.562 38.5619H3.60013C2.40849 38.5601 1.44181 37.5934 1.44002 36.4017V16.2407C1.44182 15.0472 2.40849 14.0806 3.60013 14.0806H5.11039C5.54961 18.2622 5.99605 22.5123 5.99605 22.5123V22.5105C6.15626 23.9722 7.38571 25.081 8.85638 25.09C9.36223 25.0684 35.9118 22.2567 36.3745 22.2135C36.4915 22.1991 36.6067 22.1757 36.7219 22.1451V24.1576H33.8418C29.0842 24.3088 29.0861 31.2068 33.8418 31.358H36.7219L36.7221 36.4017ZM38.8822 29.9179H33.8417C32.6591 29.9035 31.705 28.9405 31.705 27.7578C31.705 26.5734 32.6591 25.6103 33.8417 25.5977H37.4239C37.4365 25.6013 37.4473 25.6013 37.4599 25.5977H38.8819L38.8822 29.9179Z" fill="black"/>
<path d="M33.8485 27.0371C33.4561 27.0461 33.1447 27.3683 33.1465 27.7607C33.1483 28.1514 33.4633 28.47 33.8557 28.4772C34.2482 28.4664 34.5596 28.1442 34.5578 27.7536C34.556 27.3611 34.2409 27.0425 33.8485 27.0371Z" fill="black"/>
</svg>
